<?xml version="1.0" encoding="UTF-8"?>
<svg version="1.1" xmlns="http://www.w3.org/2000/svg" width="407" height="612">
<path d="M0 0 C3 1 3 1 4.0625 2.96875 C4.371875 3.8040625 4.68125 4.639375 5 5.5 C5.33773437 6.40878906 5.67546875 7.31757812 6.0234375 8.25390625 C6.34570312 9.16011719 6.66796875 10.06632812 7 11 C7.28101563 11.75152344 7.56203125 12.50304688 7.8515625 13.27734375 C12.14751731 25.27564179 14.51317581 39.33233171 8.9375 51.3125 C4.61780467 58.80330114 -0.86573255 66.02260411 -8 71 C-8.99 71 -9.98 71 -11 71 C-10.11387799 58.26782582 -8.19006301 45.79984905 -5.9375 33.25 C-5.76307373 32.27240723 -5.58864746 31.29481445 -5.40893555 30.28759766 C-5.24176025 29.37284668 -5.07458496 28.4580957 -4.90234375 27.515625 C-4.75273193 26.69352539 -4.60312012 25.87142578 -4.44897461 25.02441406 C-4 23 -4 23 -3 21 C-6.96 20.67 -10.92 20.34 -15 20 C-14 16 -14 16 -13 15 C-28.01303244 8.31932382 -43.12608869 6.60570494 -58.9296875 12 C-76.21623525 18.68589124 -88.11975143 30.92926205 -96.3125 47.375 C-98.69214984 52.98198611 -99.29440773 58.99318158 -100 65 C-99.07960938 65.14050781 -98.15921875 65.28101562 -97.2109375 65.42578125 C-88.01967924 67.06947342 -80.81258808 72.19212609 -75.3125 79.625 C-71.02444429 86.13000969 -68.42078963 93.17212334 -65.72265625 100.44140625 C-62.65348675 108.64741355 -62.65348675 108.64741355 -58 116 C-58.5228692 112.063456 -59.48222799 108.6151139 -60.86791992 104.90209961 C-66.39053834 89.28153356 -67.3099065 68.43841542 -60.62109375 53.06054688 C-59.79794096 51.34846424 -58.90016579 49.67287448 -58 48 C-57.45859375 46.9790625 -56.9171875 45.958125 -56.359375 44.90625 C-54.65450604 41.8789126 -52.84905816 38.94134453 -51 36 C-49.79284722 34.04398428 -48.59292146 32.08390645 -47.3996582 30.11938477 C-46.61320767 28.82542417 -45.82043125 27.53527922 -45.02026367 26.24975586 C-42.79036996 22.59944701 -41.18750644 19.10914928 -40 15 C-39.01 15 -38.02 15 -37 15 C-36.87625 15.6084375 -36.7525 16.216875 -36.625 16.84375 C-34.21112104 27.10273559 -29.18524249 35.99229891 -24.28515625 45.234375 C-17.5660973 58.15958763 -12.71483133 72.23776932 -17.1875 86.8125 C-17.76102369 88.22120104 -18.36636651 89.61729372 -19 91 C-19.49306641 92.21236328 -19.49306641 92.21236328 -19.99609375 93.44921875 C-23.78576066 102.01203013 -30.34524611 108.6648685 -38 114 C-38.66 114 -39.32 114 -40 114 C-46.03528167 128.88702813 -43.44640457 144.29988766 -38 159 C-37.77054688 159.63115723 -37.54109375 160.26231445 -37.3046875 160.91259766 C-35.94093612 164.6384213 -34.49600879 168.32559244 -33 172 C-32.33294083 173.66650961 -31.66614219 175.33312364 -31 177 C-30.84144531 175.99582031 -30.68289062 174.99164063 -30.51953125 173.95703125 C-28.34137064 160.89128261 -23.94796031 149.65679022 -17.95361328 137.88208008 C-11.689779 125.55527081 -7.67554979 113.56889732 -5.5 99.9375 C-3.52049645 87.70079762 -1.37573805 76.60406899 9.08984375 68.65234375 C10.17394531 67.90082031 11.25804687 67.14929688 12.375 66.375 C17.23486675 63.14926123 17.23486675 63.14926123 19.4375 58.0625 C19.33959191 53.21604947 17.63885002 48.51841136 16 44 C16.70125 43.505 17.4025 43.01 18.125 42.5 C21.70236753 39.38924563 24.27632648 35.85619756 27 32 C24.24315181 28.87037045 21.65679019 28.08137297 17.7421875 26.94140625 C16 26 16 26 15.140625 24.0625 C15 22 15 22 16.875 19.4375 C19.75361067 17.19218368 21.07836225 16.5514627 24.4375 15.625 C29.00229326 14.32619859 31.00560488 12.24647031 33.7109375 8.42578125 C34.34902344 7.72001953 34.34902344 7.72001953 35 7 C35.99 7 36.98 7 38 7 C37.9278125 7.63164063 37.855625 8.26328125 37.78125 8.9140625 C37.2113661 14.4071101 37.03555457 19.66553021 37.25 25.1875 C37.29829222 31.48618524 36.28275903 35.35250051 32 40 C28.67340412 43.15600122 25.14634408 45.07146787 21 47 C21.33 48.03125 21.66 49.0625 22 50.125 C23.06689984 53.459062 23.07907013 56.51103072 23 60 C26.2922264 58.68890091 29.58368421 57.37588318 32.875 56.0625 C33.81214844 55.68931641 34.74929688 55.31613281 35.71484375 54.93164062 C36.61074219 54.57392578 37.50664062 54.21621094 38.4296875 53.84765625 C39.25710449 53.51773682 40.08452148 53.18781738 40.93701172 52.84790039 C43.01220506 52.02457366 43.01220506 52.02457366 45 51 C46.99960012 50.960008 49.00047242 50.95653201 51 51 C50.53337009 73.56155635 47.9199585 92.54439713 31 109 C22.68373073 116.50984316 12.32200552 120.87548407 1.69140625 124.04296875 C-2.54343669 125.54882727 -5.25995209 126.73735036 -7.58203125 130.69921875 C-7.98808594 131.68535156 -8.39414062 132.67148438 -8.8125 133.6875 C-9.23144531 134.68136719 -9.65039062 135.67523438 -10.08203125 136.69921875 C-10.38496094 137.45847656 -10.68789063 138.21773437 -11 139 C-10.34 139 -9.68 139 -9 139 C-9 138.34 -9 137.68 -9 137 C5.24331211 124.23567741 26.45335923 121.0994458 45 121 C45.66 121.33 46.32 121.66 47 122 C44.23071788 137.60868102 34.80507035 151.64244859 22 161 C11.75954009 166.55281467 1.56408068 169.19392089 -9.93603516 170.26635742 C-14.20060745 170.6831471 -18.08765972 171.20115462 -22 173 C-25.49193264 178.7468707 -24.2852874 187.74443936 -23 194 C-21.88718648 197.10218168 -20.67641565 200.11238465 -19.3762207 203.13769531 C-2.99973313 241.71800748 -13.60831479 287.30738747 -24.92944336 325.70385742 C-28.69366381 338.60446083 -31.51662281 351.53794538 -32 365 C-31.56429687 363.97261719 -31.12859375 362.94523437 -30.6796875 361.88671875 C-25.28834515 349.28912672 -19.4464728 336.90051557 -11 326 C-10.34 326 -9.68 326 -9 326 C-8.67 324.68 -8.34 323.36 -8 322 C-7.34 322 -6.68 322 -6 322 C-5.6596875 321.1646875 -5.6596875 321.1646875 -5.3125 320.3125 C-3.62622733 317.34144815 -1.469646 315.35477875 1 313 C1.845625 312.113125 2.69125 311.22625 3.5625 310.3125 C6 308 6 308 8.1875 306.9375 C10.15634352 306.15883286 10.15634352 306.15883286 10.8046875 304.18359375 C17.50638639 291.94094775 39.60957726 284.80084285 52.37890625 280.9921875 C75.55567587 275.01669996 98.5268109 277.74752311 119.875 288.8125 C123.79239687 291.26407353 123.79239687 291.26407353 124.609375 294.16015625 C124.625 296.375 124.625 296.375 124 300 C123.26136719 299.55269531 122.52273438 299.10539062 121.76171875 298.64453125 C99.52899335 285.39529591 78.60350353 282.01184376 53.48242188 288.30664062 C42.58490799 291.35039942 32.89800981 295.98490237 24 303 C17.27455919 308 17.27455919 308 15 308 C15 308.66 15 309.32 15 310 C13.49609375 311.48046875 13.49609375 311.48046875 11.4375 313.1875 C-10.11028793 331.63543072 -26.45173897 359.49132969 -29 388 C-30.09314708 406.74291762 -26.38909513 424.22180973 -18 441 C-17.49726563 442.00546875 -16.99453125 443.0109375 -16.4765625 444.046875 C-11.23157206 454.15712806 -5.0130616 463.10651199 2.75 471.44140625 C4 473 4 473 4 475 C4.61875 475.309375 5.2375 475.61875 5.875 475.9375 C7.25 476.625 8.625 477.3125 10 478 C9.566875 476.33904297 9.566875 476.33904297 9.125 474.64453125 C3.90240772 452.94604202 3.65382047 430.20456445 11 409 C11.39574219 407.85660156 11.79148437 406.71320313 12.19921875 405.53515625 C18.69695981 388.76191769 30.94602486 370.00588849 47 361 C47.66 361 48.32 361 49 361 C49.66 359.68 50.32 358.36 51 357 C51.66 357 52.32 357 53 357 C53.66 355.68 54.32 354.36 55 353 C55.66 353 56.32 353 57 353 C57.27328125 352.42024414 57.5465625 351.84048828 57.828125 351.24316406 C59.80546916 347.45819779 62.44504437 344.16062473 65 340.75 C65.5465625 340.00492187 66.093125 339.25984375 66.65625 338.4921875 C67.1821875 337.78835938 67.708125 337.08453125 68.25 336.359375 C68.72953125 335.71452148 69.2090625 335.06966797 69.703125 334.40527344 C70.13109375 333.9415332 70.5590625 333.47779297 71 333 C71.66 333 72.32 333 73 333 C73.66 331.68 74.32 330.36 75 329 C75.66 329 76.32 329 77 329 C77.33 328.01 77.66 327.02 78 326 C79.85546875 324.71875 79.85546875 324.71875 82.1875 323.5 C83.00605469 323.07203125 83.82460938 322.6440625 84.66796875 322.203125 C85.43753906 321.80609375 86.20710937 321.4090625 87 321 C88.485 320.13375 88.485 320.13375 90 319.25 C93.9556033 317.60183196 97.75142915 317.27379679 102 317 C101.96978405 327.62090643 100.61447369 333.89548497 93.43359375 341.703125 C88.71558523 346.20512831 82.97376386 348.55864262 77 351 C78.63195312 351.11214844 78.63195312 351.11214844 80.296875 351.2265625 C95.02734069 352.4525597 105.75001091 356.91104383 116 368 C118.22841802 370.88492291 120.20498024 373.82839414 122 377 C122.34619385 377.58330078 122.6923877 378.16660156 123.04907227 378.76757812 C125.02392581 383.403794 124.41280087 388.72297567 124.4375 393.6875 C124.47037109 394.83412109 124.50324219 395.98074219 124.53710938 397.16210938 C124.5950103 406.35782932 122.56382621 412.09676177 116.375 418.875 C115.59125 419.57625 114.8075 420.2775 114 421 C113.319375 421.8353125 113.319375 421.8353125 112.625 422.6875 C108.74696666 425.81975769 104.17371382 426.20439496 99.375 425.8125 C94.88943871 425.15533088 91.55289916 423.99658463 88.6875 420.3125 C87.65009947 416.82306185 87.31412034 413.56374589 88 410 C90.42097772 406.65335433 92.08759917 405.30413361 96 404 C99.62603173 404 101.16064111 404.79160975 104 407 C106.29633824 410.44450737 106.54016485 412.93812283 107 417 C113.13662168 412.75952547 116.30314849 408.29947367 118 401 C119.24107068 390.57244734 117.14943484 382.4280569 111.375 373.75 C106.40697295 367.53682187 98.79670618 363.32147562 91 362 C74.36034458 361.01616433 62.19507943 365.79091247 49.46875 376.70703125 C46.00704401 379.92225501 42.92766451 383.29606081 40 387 C39.48953125 387.63550781 38.9790625 388.27101563 38.453125 388.92578125 C21.99626197 410.09066438 16.56868246 435.08967445 19.25048828 461.46337891 C20.7727919 472.27479334 23.06901929 488.06901929 31.125 496.125 C32.07375 496.74375 33.0225 497.3625 34 498 C34.804375 498.57878906 35.60875 499.15757812 36.4375 499.75390625 C41.41601006 503.44590248 41.41601006 503.44590248 47 506 C46.43386564 501.50089778 46.43386564 501.50089778 45.47973633 497.07592773 C42.71338456 485.10529714 43.9906228 470.14939753 49 459 C49.40089844 458.06414062 49.80179688 457.12828125 50.21484375 456.1640625 C55.68700664 444.83906451 65.24728526 435.61650864 77 431 C78.9900795 430.61180588 80.98968974 430.26412835 83 430 C82.97679687 431.01320313 82.95359375 432.02640625 82.9296875 433.0703125 C82.9109159 434.42186758 82.8927172 435.77343069 82.875 437.125 C82.84986328 438.12273437 82.84986328 438.12273437 82.82421875 439.140625 C82.79345839 442.27818125 82.94626112 444.84542043 83.98046875 447.8203125 C86.84580599 456.75665164 86.91469441 470.56141158 82.8125 479.0625 C80.62625171 482.48391681 78.10724543 485.37079233 75 488 C74.42378906 488.495 73.84757813 488.99 73.25390625 489.5 C70.44086392 491.37211136 67.74677691 492.1428281 64.5 493.0625 C60.70083764 494.14735256 57.55526596 495.22236702 54 497 C54.33 501.62 54.66 506.24 55 511 C58.08192117 512.48216892 61.16521746 513.96130347 64.25 515.4375 C65.66635742 516.11594971 65.66635742 516.11594971 67.11132812 516.80810547 C72.69426474 519.46863664 78.30545043 522.03761148 83.97167969 524.51538086 C98.22465907 530.77067164 115.83434984 538.89322896 124 553 C124.29296875 555.796875 124.29296875 555.796875 124.1875 558.75 C124.16042969 559.73484375 124.13335937 560.7196875 124.10546875 561.734375 C124.05326172 562.85585937 124.05326172 562.85585937 124 564 C122.03289306 561.56061408 120.08670162 559.11604388 118.2109375 556.60546875 C111.02294219 547.13872599 102.34702875 540.7140308 92 535 C91.03513672 534.46439453 91.03513672 534.46439453 90.05078125 533.91796875 C84.97172977 531.24534418 79.64189397 529.26015957 74.27734375 527.23828125 C69.82554967 525.55625655 65.41218816 523.78280289 61 522 C60.67 522.33 60.34 522.66 60 523 C64.3595497 531.24394413 68.72362309 538.38693978 75.3125 545.109375 C77 547 77 547 77 549 C78.32 549.66 79.64 550.32 81 551 C81 551.66 81 552.32 81 553 C82.32 553.66 83.64 554.32 85 555 C85 555.66 85 556.32 85 557 C85.56074219 557.24492188 86.12148438 557.48984375 86.69921875 557.7421875 C94.21516608 561.85107551 100.80537694 569.25731047 106 576 C106 576.33 106 576.66 106 577 C94.07438822 578.37407476 94.07438822 578.37407476 89.55859375 575.3828125 C88.12780772 573.85700273 86.73952224 572.29067041 85.38671875 570.6953125 C82.61496305 567.56517922 79.61592629 565.10519183 76.3125 562.5625 C75.71421387 562.10149902 75.11592773 561.64049805 74.49951172 561.16552734 C72.67231908 559.76895009 70.83657764 558.38420164 69 557 C68.42588379 556.55978516 67.85176758 556.11957031 67.26025391 555.66601562 C52.30079731 544.23170947 31.64826806 531.39601267 12 534 C10.11084001 534.86986065 10.11084001 534.86986065 8.3125 536 C2.64298263 539.18768045 -3.70234355 538.77509618 -10 538 C-12.83100963 536.95581203 -14.57834153 535.84507312 -17 534 C-15.62721909 530.62465725 -14.4223063 529.3367265 -11.125 527.8125 C-10.44695312 527.48894531 -9.76890625 527.16539062 -9.0703125 526.83203125 C-7.06189636 526.02487533 -5.11060185 525.46849682 -3 525 C-4.98 524.01 -6.96 523.02 -9 522 C-9 521.34 -9 520.68 -9 520 C-9.7425 519.71125 -10.485 519.4225 -11.25 519.125 C-14 518 -14 518 -15.91015625 516.90625 C-18.35748855 515.84497693 -19.58078256 515.94766927 -22.1875 516.375 C-33.37679259 517.8535199 -42.38502619 516.40998254 -52 510 C-60.00974383 502.3466219 -65.78152113 492.31325557 -69.5 481.9375 C-70.91326876 477.99440207 -72.8358279 474.58207796 -75 471 C-68.22220718 467.61110359 -56.98620202 470.26373542 -50 472 C-36.12540263 477.46075117 -28.2666901 486.33307242 -21.0625 499.125 C-11.96681225 514.70695687 5.45913815 522.19315654 22.1328125 527 C27.37942127 528.35669883 32.62613801 529.31808948 38 530 C37.09121094 528.88818359 37.09121094 528.88818359 36.1640625 527.75390625 C31.73592425 522.21985007 27.75945365 516.75561296 24.38037109 510.51147461 C20.0351966 502.50144869 15.7140841 497.36027591 8.20703125 492.21875 C4.99027013 489.9932685 2.10218419 487.60548855 -0.8125 485 C-2.02873047 483.9171875 -2.02873047 483.9171875 -3.26953125 482.8125 C-5 481 -5 481 -5 479 C-5.60215332 478.73896484 -6.20430664 478.47792969 -6.82470703 478.20898438 C-9.15821675 476.91206629 -10.2231403 475.78183105 -11.8046875 473.65625 C-12.30274902 472.99206055 -12.80081055 472.32787109 -13.31396484 471.64355469 C-13.82910645 470.93618164 -14.34424805 470.22880859 -14.875 469.5 C-15.40947754 468.77458008 -15.94395508 468.04916016 -16.49462891 467.30175781 C-20.32969671 462.04390913 -23.91646759 456.73853767 -27 451 C-27.49886719 450.0821875 -27.99773437 449.164375 -28.51171875 448.21875 C-32.42968439 440.71836237 -35.34121151 433.02401401 -38 425 C-38.28746094 424.18273437 -38.57492188 423.36546875 -38.87109375 422.5234375 C-39.69676325 420.03359477 -40.37039636 417.54687124 -41 415 C-41.27972656 413.87078125 -41.55945313 412.7415625 -41.84765625 411.578125 C-48.62846704 380.44222364 -42.78483231 348.90859275 -34.38818359 318.80664062 C-30.57871669 304.94380619 -28.08160815 289.71215891 -34 276 C-34.99187277 274.66060977 -35.99052444 273.32617377 -37 272 C-37 271.34 -37 270.68 -37 270 C-37.589021 269.98541748 -38.17804199 269.97083496 -38.78491211 269.95581055 C-41.50303802 269.88046236 -44.22004942 269.78409616 -46.9375 269.6875 C-47.86369141 269.66494141 -48.78988281 269.64238281 -49.74414062 269.61914062 C-61.0882917 269.1812962 -68.12362283 266.2416124 -76 258 C-81.23106605 251.77927281 -83.22320248 243.48551346 -85.0625 235.6875 C-85.76268782 232.93342791 -86.48244519 230.73832005 -87.625 228.1875 C-89 225 -89 225 -89 222 C-84.89484789 222.05255465 -80.79169211 222.14778406 -76.6875 222.25 C-75.53958984 222.26417969 -74.39167969 222.27835938 -73.20898438 222.29296875 C-62.23628837 222.60381 -51.99590085 225.03909215 -44 233 C-41.75731673 235.87203315 -39.80589581 238.83680671 -38 242 C-37.64035156 242.57878906 -37.28070313 243.15757812 -36.91015625 243.75390625 C-35.81624138 246.45348157 -35.48259139 249.11627565 -35.11254883 251.99267578 C-33.81499153 262.02472575 -30.77480857 270.13062956 -26 279 C-25.67 279 -25.34 279 -25 279 C-19.68183938 248.95872362 -20.24676319 218.13076824 -38 192 C-42.71375495 185.74089315 -47.86458682 179.32535327 -56 178 C-62.3462135 178.54241141 -66.47345588 181.93664439 -70.96484375 186.16015625 C-78.28791159 192.78043447 -86.69844581 197.59356388 -96.75 197.5625 C-97.83341675 197.5632251 -97.83341675 197.5632251 -98.9387207 197.56396484 C-107.3996025 197.31253511 -115.10973038 194.60074387 -122.99755859 191.72753906 C-125.64746754 190.7647582 -128.32163853 189.87997203 -131 189 C-130.6875 187.0625 -130.6875 187.0625 -130 185 C-129.01 184.67 -128.02 184.34 -127 184 C-126.70480469 183.3915625 -126.40960938 182.783125 -126.10546875 182.15625 C-123.88555317 177.82623799 -118.98558112 175.58851096 -115 173 C-114.11248047 172.38898438 -114.11248047 172.38898438 -113.20703125 171.765625 C-104.09297059 165.9146231 -92.3621776 164.64040187 -81.890625 166.57421875 C-77.48356349 167.61020709 -73.29035641 168.75998357 -69.1875 170.6875 C-65.5782101 172.1736782 -62.86606922 172.23669812 -59 172 C-59.33 171.01 -59.66 170.02 -60 169 C-61.63584802 168.26093067 -63.3129536 167.6132672 -65 167 C-66.26720703 166.3795432 -67.52577973 165.74127894 -68.77734375 165.08984375 C-69.45603516 164.73986328 -70.13472656 164.38988281 -70.83398438 164.02929688 C-72.23485587 163.30219644 -73.63331409 162.57042721 -75.02929688 161.83398438 C-83.99864903 157.2345346 -92.79826626 157.41622648 -102.62109375 158.765625 C-115.86996645 160.07093266 -128.41794141 158.87202143 -140 152 C-140.60070312 151.64550781 -141.20140625 151.29101562 -141.8203125 150.92578125 C-143.5 149.875 -143.5 149.875 -146 148 C-146 147.34 -146 146.68 -146 146 C-146.86625 145.62875 -146.86625 145.62875 -147.75 145.25 C-150.32939979 143.81700012 -152.06121592 142.21575324 -154 140 C-154 139.34 -154 138.68 -154 138 C-155.32 137.34 -156.64 136.68 -158 136 C-158 135.34 -158 134.68 -158 134 C-158.99 133.67 -159.98 133.34 -161 133 C-162.35432675 131.68799596 -163.68733482 130.35368596 -165 129 C-165.99 128.34 -166.98 127.68 -168 127 C-167.67 126.01 -167.34 125.02 -167 124 C-164.70703125 122.90234375 -164.70703125 122.90234375 -161.8125 121.9375 C-160.87019531 121.61652344 -159.92789063 121.29554688 -158.95703125 120.96484375 C-157.98121094 120.64644531 -157.00539063 120.32804687 -156 120 C-154.61748047 119.49726563 -154.61748047 119.49726563 -153.20703125 118.984375 C-139.03591316 114.634653 -122.88781013 112.92408307 -109 119 C-100.129913 124.09759573 -93.28214538 131.01898651 -87 139 C-79.20452232 148.84534417 -70.30973272 155.53016024 -60.02978516 162.59863281 C-53.067502 167.40540516 -46.32741274 172.37563312 -40 178 C-42.52759144 170.39178013 -45.07194204 162.78929126 -47.65136719 155.19848633 C-48.13287716 153.77718716 -48.61173012 152.35498502 -49.08789062 150.93188477 C-54.41263778 132.42813647 -54.41263778 132.42813647 -67 119 C-69.37369416 118.8694178 -71.7491542 118.77015865 -74.125 118.6875 C-80.22667108 118.37234601 -84.94089676 117.5237535 -90 114 C-90.9075 113.401875 -91.815 112.80375 -92.75 112.1875 C-98.05541272 107.02945985 -100.58029565 99.8608078 -103 93 C-103.30292969 92.16339844 -103.60585937 91.32679687 -103.91796875 90.46484375 C-109.11191397 73.51746382 -106.9544468 55.47035508 -99.42578125 39.703125 C-89.68148819 21.80451677 -74.19822493 10.15932701 -55 4 C-52.29427286 3.31981721 -49.78566236 3.06890331 -47 3 C-45.94039063 2.96132813 -44.88078125 2.92265625 -43.7890625 2.8828125 C-32.84016901 2.6690597 -23.80285334 3.49787932 -14.19140625 8.9765625 C-11.79906251 10.28210046 -11.79906251 10.28210046 -8 10 C-6.28931567 8.59389245 -6.28931567 8.59389245 -4.875 6.6875 C-4.37742187 6.07261719 -3.87984375 5.45773438 -3.3671875 4.82421875 C-2.19110227 3.25498503 -1.08778829 1.63168243 0 0 Z M26 22 C26 22.99 26 23.98 26 25 C28.475 25.99 28.475 25.99 31 27 C30.67 25.68 30.34 24.36 30 23 C28.68 22.67 27.36 22.34 26 22 Z M-41 45 C-46.31228501 52.63928017 -50.03709245 60.18724933 -53 69 C-53.32097656 69.88171875 -53.64195312 70.7634375 -53.97265625 71.671875 C-59.1969364 87.70920012 -55.13177895 102.55234447 -50 118 C-49.67 118 -49.34 118 -49 118 C-48.84144531 116.86691406 -48.68289062 115.73382813 -48.51953125 114.56640625 C-48.28422665 112.89838491 -48.04850924 111.23042178 -47.8125 109.5625 C-47.68447998 108.65612793 -47.55645996 107.74975586 -47.42456055 106.81591797 C-46.55283263 100.7053008 -45.63564126 94.60302627 -44.6875 88.50390625 C-44.45853648 87.02336246 -44.2296141 85.54281231 -44.00073242 84.06225586 C-43.65906624 81.85316597 -43.31557621 79.64444111 -42.96621704 77.43655396 C-42.63556532 75.34642315 -42.31141295 73.25536719 -41.98828125 71.1640625 C-41.70271362 69.34575928 -41.70271362 69.34575928 -41.41137695 67.49072266 C-40.9952391 63.95960154 -40.92811838 60.55203158 -41 57 C-40.34 57 -39.68 57 -39 57 C-36.97437341 68.08668839 -36.78447282 78.76863917 -37 90 C-33.26380641 86.26380641 -33.05222854 81.03169032 -32.921875 75.9609375 C-33.23158184 68.61400303 -34.60238483 61.78932238 -36.4375 54.6875 C-36.6547876 53.84461426 -36.8720752 53.00172852 -37.09594727 52.13330078 C-37.66191377 50.06878759 -38.32305592 48.03083223 -39 46 C-39.66 45.67 -40.32 45.34 -41 45 Z M33.22265625 72.33984375 C30.73924832 74.1947618 28.26635531 75.30062712 25.4375 76.5625 C18.44869497 79.95804488 13.46350611 84.55800375 8 90 C11.96358741 90 13.71517531 88.54005079 17.0625 86.4375 C17.63379639 86.07978516 18.20509277 85.72207031 18.79370117 85.35351562 C23.9833234 82.07540305 29.02435902 78.59414247 34 75 C34.33 75.66 34.66 76.32 35 77 C35.66 75.02 36.32 73.04 37 71 C34.8952098 70.79934541 34.8952098 70.79934541 33.22265625 72.33984375 Z M-101 77 C-100.74379316 78.6065676 -100.46944129 80.2102483 -100.1875 81.8125 C-100.03667969 82.70582031 -99.88585937 83.59914063 -99.73046875 84.51953125 C-98.90554681 87.32073676 -98.30620549 88.25011601 -96 90 C-94.13041263 90.98880399 -92.23042643 91.92106941 -90.3125 92.8125 C-85.04220226 95.36760182 -80.50136684 98.26651338 -76 102 C-75.34 101.67 -74.68 101.34 -74 101 C-85.36905049 87.69172481 -85.36905049 87.69172481 -99 77 C-99.66 77 -100.32 77 -101 77 Z M33 78 C32.40832031 78.74765625 31.81664062 79.4953125 31.20703125 80.265625 C30.41683594 81.25046875 29.62664062 82.2353125 28.8125 83.25 C28.03519531 84.22453125 27.25789062 85.1990625 26.45703125 86.203125 C24.13969475 88.84098341 21.73499042 90.8211243 19 93 C17.01738193 95.69272482 15 98.57792299 15 102 C17.11924262 102.23478574 17.11924262 102.23478574 18.515625 100.49609375 C19.37414062 99.47708984 19.37414062 99.47708984 20.25 98.4375 C20.87003906 97.7053125 21.49007812 96.973125 22.12890625 96.21875 C22.74636719 95.4865625 23.36382812 94.754375 24 94 C24.54527344 93.3915625 25.09054687 92.783125 25.65234375 92.15625 C29.05578238 88.34578435 31.74496305 84.60027537 34 80 C33.67 79.34 33.34 78.68 33 78 Z M11 104 C10.67 104.66 10.34 105.32 10 106 C10.99 105.67 11.98 105.34 13 105 C12.34 104.67 11.68 104.34 11 104 Z M4 111 C3.67 111.99 3.34 112.98 3 114 C4.32 113.67 5.64 113.34 7 113 C6.01 112.34 5.02 111.68 4 111 Z M-146 129 C-142.35887915 132.97213184 -138.78375207 135.55518506 -134 138 C-133.20207031 138.49886719 -132.40414062 138.99773437 -131.58203125 139.51171875 C-126.24715665 141.72828061 -120.84006278 142.09728753 -115.125 142.6875 C-113.9596875 142.81705078 -112.794375 142.94660156 -111.59375 143.08007812 C-108.73012176 143.39695502 -105.86577147 143.70324475 -103 144 C-105.13509956 141.86490044 -106.37826195 141.355595 -109.18359375 140.37890625 C-110.02438477 140.08443604 -110.86517578 139.78996582 -111.73144531 139.48657227 C-113.07094238 139.02915649 -113.07094238 139.02915649 -114.4375 138.5625 C-115.33952148 138.25046631 -116.24154297 137.93843262 -117.17089844 137.61694336 C-123.38304785 135.49094077 -129.61309237 133.53813142 -136 132 C-136 131.34 -136 130.68 -136 130 C-114.65271161 134.39411338 -114.65271161 134.39411338 -108.37890625 137.15234375 C-105.90283248 138.3100043 -105.90283248 138.3100043 -103 137 C-116.35219754 128.3865782 -130.19606718 124.28654635 -146 129 Z M9.25 140.375 C8.56550781 140.59671875 7.88101563 140.8184375 7.17578125 141.046875 C3.36836875 142.10332875 3.36836875 142.10332875 1 145 C4.8063457 144.32829194 8.35206816 143.27253436 12 142 C9.70467286 144.51745558 7.33326262 146.07834684 4.375 147.75 C-0.76932428 150.76094274 -5.38822632 154.23483212 -10 158 C-9.34 158.33 -8.68 158.66 -8 159 C3.866945 154.38238603 13.12008017 147.02237844 22 138 C17.40945814 137.66193684 13.53470213 138.90548752 9.25 140.375 Z M-101 139 C-100.34 139.66 -99.68 140.32 -99 141 C-99 140.34 -99 139.68 -99 139 C-99.66 139 -100.32 139 -101 139 Z M-87.4921875 178.09375 C-89.29042969 178.43212891 -89.29042969 178.43212891 -91.125 178.77734375 C-92.98125 179.13505859 -92.98125 179.13505859 -94.875 179.5 C-96.76605469 179.85771484 -96.76605469 179.85771484 -98.6953125 180.22265625 C-101.79783124 180.8102545 -104.89930657 181.40285765 -108 182 C-102.05499528 185.96333648 -92.91531692 184.93610306 -86 184 C-81.88788615 182.50626487 -78.48580147 180.63197594 -75 178 C-75 177.67 -75 177.34 -75 177 C-79.32346886 176.8860746 -83.24681469 177.28510756 -87.4921875 178.09375 Z M-72 232 C-71.56494141 232.85464844 -71.56494141 232.85464844 -71.12109375 233.7265625 C-70.03925748 235.92039075 -69.04159407 238.13370032 -68.0625 240.375 C-67.70671875 241.16261719 -67.3509375 241.95023438 -66.984375 242.76171875 C-66.20010935 244.54498946 -65.49260228 246.3619623 -64.8125 248.1875 C-61.29901302 253.63946255 -55.66025123 256.80270343 -49.4375 258.375 C-48.303125 258.58125 -47.16875 258.7875 -46 259 C-48.59060733 254.77826953 -51.06585313 251.97459885 -55 249 C-55.845625 248.13375 -56.69125 247.2675 -57.5625 246.375 C-59.77125703 243.9560668 -59.77125703 243.9560668 -62.1875 243 C-64.77931046 241.57003561 -65.13509633 239.73886163 -66 237 C-63.525 237.99 -63.525 237.99 -61 239 C-63.17510408 235.73734388 -64.12949953 235.26063591 -67.625 233.8125 C-68.44226563 233.46832031 -69.25953125 233.12414062 -70.1015625 232.76953125 C-70.72804688 232.51558594 -71.35453125 232.26164063 -72 232 Z M71 445 C61.93099244 454.18062611 55.41189911 467.02517795 55 480 C55.33 480.99 55.66 481.98 56 483 C55.5625 485.6875 55.5625 485.6875 55 488 C55.99 487.505 55.99 487.505 57 487 C57.33 486.01 57.66 485.02 58 484 C59.485 483.505 59.485 483.505 61 483 C62.60672842 481.01492712 62.60672842 481.01492712 64.0625 478.625 C64.56910156 477.83351563 65.07570313 477.04203125 65.59765625 476.2265625 C66.06042969 475.49179687 66.52320313 474.75703125 67 474 C67.66 473.01 68.32 472.02 69 471 C70.03108954 467.07914636 70.25265536 463.16201794 70.5 459.125 C70.81489216 454.36662952 71.21624558 449.7025265 72 445 C71.67 445 71.34 445 71 445 Z M-52 485 C-44.31602435 498.57578337 -44.31602435 498.57578337 -31.6171875 506.6875 C-29.41738945 507.18400614 -27.22335558 507.62449995 -25 508 C-27.71138008 504.3890205 -30.48724489 501.62519624 -34.0625 498.875 C-40.31922043 494.03897849 -40.31922043 494.03897849 -42 492 C-42 491.01 -42 490.02 -42 489 C-43.28913487 488.32845067 -44.58140204 487.66291141 -45.875 487 C-46.59429687 486.62875 -47.31359375 486.2575 -48.0546875 485.875 C-49.94848977 484.86326254 -49.94848977 484.86326254 -52 485 Z M36 508 C37.47641437 512.41283851 39.8902771 515.77013431 42.75 519.375 C43.19883545 519.94790771 43.6476709 520.52081543 44.11010742 521.11108398 C50.78313566 529.82062872 50.78313566 529.82062872 59 537 C59.66 537 60.32 537 61 537 C61 536.01 61 535.02 61 534 C60.34 534 59.68 534 59 534 C58.79375 533.236875 58.5875 532.47375 58.375 531.6875 C57.15188499 528.40732794 55.7902254 525.41906799 54.1875 522.3125 C53.46626953 520.91451172 53.46626953 520.91451172 52.73046875 519.48828125 C50.7665807 516.66436096 49.0228515 515.57755063 46 514 C44.948125 513.278125 43.89625 512.55625 42.8125 511.8125 C40.27746627 509.81943289 40.27746627 509.81943289 38 510 C38 509.34 38 508.68 38 508 C37.34 508 36.68 508 36 508 Z " fill="#D5D7C7" transform="translate(283,35)"/>
<path d="M0 0 C2.85712393 0.07819497 5.54758226 0.28071778 8.375 0.625 C9.18122803 0.71910156 9.98745605 0.81320313 10.81811523 0.91015625 C17.44406327 1.76537273 23.93354053 3.09717079 30 6 C31.82089479 9.64178957 31.05121113 14.00553148 31 18 C27.37 17.01 23.74 16.02 20 15 C20.99 15.66 21.98 16.32 23 17 C23 17.66 23 18.32 23 19 C23.721875 19.268125 24.44375 19.53625 25.1875 19.8125 C32.48497854 22.89365761 32.48497854 22.89365761 34.58203125 27.3984375 C35.01089679 28.71802379 35.42063858 30.04395595 35.8125 31.375 C36.13637695 32.365 36.13637695 32.365 36.46679688 33.375 C37.60491944 37.00253985 38.25681006 40.19921105 38 44 C32.77564214 46.11197445 29.52414621 46.24213875 24.2578125 44.14453125 C11.72591289 37.7918555 6.57804072 23.44815031 2.10546875 10.90234375 C0.93029059 7.81698202 -0.48094674 4.92929182 -2 2 C-1.34 1.34 -0.68 0.68 0 0 Z " fill="#D5D7C6" transform="translate(142,98)"/>
<path d="M0 0 C0.99 0 1.98 0 3 0 C2.9278125 0.63164063 2.855625 1.26328125 2.78125 1.9140625 C2.2113661 7.4071101 2.03555457 12.66553021 2.25 18.1875 C2.29829222 24.48618524 1.28275903 28.35250051 -3 33 C-6.32659588 36.15600122 -9.85365592 38.07146787 -14 40 C-13.67 41.03125 -13.34 42.0625 -13 43.125 C-12.0284808 46.48426709 -11.82883229 49.49106202 -12 53 C-12.99 52.67 -13.98 52.34 -15 52 C-16.203125 49.1640625 -16.203125 49.1640625 -17.25 45.625 C-17.60578125 44.46226563 -17.9615625 43.29953125 -18.328125 42.1015625 C-19 39 -19 39 -18 36 C-16.3563186 34.31066078 -14.6857124 32.64740076 -13 31 C-11.28838535 29.03326663 -9.64625433 27.02254103 -8 25 C-10.75684819 21.87037045 -13.34320981 21.08137297 -17.2578125 19.94140625 C-19 19 -19 19 -19.859375 17.0625 C-20 15 -20 15 -18.125 12.4375 C-15.24638933 10.19218368 -13.92163775 9.5514627 -10.5625 8.625 C-5.99770674 7.32619859 -3.99439512 5.24647031 -1.2890625 1.42578125 C-0.86367188 0.95527344 -0.43828125 0.48476563 0 0 Z M-9 15 C-9 15.99 -9 16.98 -9 18 C-6.525 18.99 -6.525 18.99 -4 20 C-4.33 18.68 -4.66 17.36 -5 16 C-6.32 15.67 -7.64 15.34 -9 15 Z " fill="#DBDDCF" transform="translate(318,42)"/>
<path d="M0 0 C5.68041095 -0.27085403 10.37446609 0.65634194 15.8125 2.25 C16.60422607 2.47598877 17.39595215 2.70197754 18.21166992 2.93481445 C23.96581114 4.61145927 29.50831316 6.59541819 35 9 C36.66487425 9.67113036 38.331133 10.33886072 40 11 C39.34 12.98 38.68 14.96 38 17 C37.401875 16.649375 36.80375 16.29875 36.1875 15.9375 C33.89186786 14.66695302 33.89186786 14.66695302 31 16 C31 15.01 31 14.02 31 13 C30.45174561 12.80889648 29.90349121 12.61779297 29.33862305 12.42089844 C9.20834947 5.40033088 9.20834947 5.40033088 0 2 C0 1.34 0 0.68 0 0 Z " fill="#DCDCCD" transform="translate(147,165)"/>
<path d="M0 0 C6.75 1.75 6.75 1.75 9 4 C9.99 4.33 10.98 4.66 12 5 C12 5.99 12 6.98 12 8 C13.32 8.33 14.64 8.66 16 9 C16 9.99 16 10.98 16 12 C16.99 12.33 17.98 12.66 19 13 C18.67 13.66 18.34 14.32 18 15 C16.68 14.34 15.36 13.68 14 13 C13.67 13.66 13.34 14.32 13 15 C11.948125 13.63875 11.948125 13.63875 10.875 12.25 C8.91342094 9.86369157 7.49391337 8.67253218 4.8125 6.9375 C1.73269607 4.81585729 0.98335609 3.54008191 0 0 Z " fill="#E1E0D7" transform="translate(217,272)"/>
<path d="M0 0 C0 3 0 3 0 3 Z M-6 1 C-4.68 1 -3.36 1 -2 1 C-1.67 1.99 -1.34 2.98 -1 4 C-4 6 -4 6 -6 6 C-8.1274887 8.48884559 -10.05895415 11.09890916 -12.02734375 13.71484375 C-14 16 -14 16 -17 17 C-16.4740625 15.329375 -16.4740625 15.329375 -15.9375 13.625 C-14.62760669 10.19735524 -14.62760669 10.19735524 -16 8 C-15.36191406 7.57847656 -14.72382813 7.15695313 -14.06640625 6.72265625 C-13.24011719 6.17480469 -12.41382813 5.62695312 -11.5625 5.0625 C-10.73878906 4.51722656 -9.91507812 3.97195312 -9.06640625 3.41015625 C-7.10014075 2.16197019 -7.10014075 2.16197019 -6 1 Z " fill="#DADACF" transform="translate(321,109)"/>
<path d="M0 0 C3.89007902 0.83990342 7.21119332 2.44237213 10.78125 4.16015625 C13.22809796 5.23600592 13.22809796 5.23600592 17 5 C17.99 4.34 18.98 3.68 20 3 C18.99698154 5.64432139 18.04397318 6.96367433 15.84375 8.78125 C13 10 13 10 9.66796875 9.19921875 C8.51941406 8.70035156 7.37085938 8.20148437 6.1875 7.6875 C4.44533203 6.95080078 4.44533203 6.95080078 2.66796875 6.19921875 C1.78753906 5.80347656 0.90710938 5.40773438 0 5 C0 3.33333333 0 1.66666667 0 0 Z " fill="#DCDCCF" transform="translate(258,40)"/>
<path d="M0 0 C1.0625 1.875 1.0625 1.875 2 4 C1.67 4.66 1.34 5.32 1 6 C1.309375 7.0725 1.61875 8.145 1.9375 9.25 C2.92659272 12.74091548 3.17527726 15.40681611 3 19 C2.01 18.67 1.02 18.34 0 18 C-1.203125 15.1640625 -1.203125 15.1640625 -2.25 11.625 C-2.60578125 10.46226563 -2.9615625 9.29953125 -3.328125 8.1015625 C-4 5 -4 5 -3 2 C-2.01 1.34 -1.02 0.68 0 0 Z " fill="#E3E1DA" transform="translate(303,76)"/>
<path d="M0 0 C0.66 0 1.32 0 2 0 C2 0.99 2 1.98 2 3 C3.32 3.33 4.64 3.66 6 4 C4.35 7.3 2.7 10.6 1 14 C0.01 13.01 -0.98 12.02 -2 11 C-2.66 11 -3.32 11 -4 11 C-3.52269162 9.5410574 -3.04308958 8.08286504 -2.5625 6.625 C-2.29566406 5.81289062 -2.02882813 5.00078125 -1.75390625 4.1640625 C-1 2 -1 2 0 0 Z " fill="#DCDBD0" transform="translate(272,158)"/>
<path d="M0 0 C3.45925163 1.2491742 6.14693203 2.67527795 9 5 C8.34 5.66 7.68 6.32 7 7 C6.30251417 8.31747324 5.63040043 9.64914193 5 11 C2.5 9.625 2.5 9.625 0 8 C0 7.34 0 6.68 0 6 C-0.66 5.67 -1.32 5.34 -2 5 C-1.125 1.125 -1.125 1.125 0 0 Z " fill="#DCDDCF" transform="translate(321,537)"/>
<path d="M0 0 C3.96 0 7.92 0 12 0 C12 0.66 12 1.32 12 2 C11.34 2 10.68 2 10 2 C10 2.66 10 3.32 10 4 C6.7 5.32 3.4 6.64 0 8 C0.33 6.35 0.66 4.7 1 3 C0.01 2.67 -0.98 2.34 -2 2 C-1.34 2 -0.68 2 0 2 C0 1.34 0 0.68 0 0 Z " fill="#DCDDD0" transform="translate(217,208)"/>
<path d="M0 0 C0 4 0 8 0 12 C-1.32 12 -2.64 12 -4 12 C-5.01018369 7.65621014 -5.25218057 4.941316 -3 1 C-2.01 0.67 -1.02 0.34 0 0 Z " fill="#D3D4C4" transform="translate(316,46)"/>
<path d="M0 0 C0.99 0.33 1.98 0.66 3 1 C3 1.99 3 2.98 3 4 C4.32 4.33 5.64 4.66 7 5 C7 5.99 7 6.98 7 8 C7.99 8.33 8.98 8.66 10 9 C9.67 9.66 9.34 10.32 9 11 C7.68 10.34 6.36 9.68 5 9 C4.67 9.66 4.34 10.32 4 11 C2.5 9.875 2.5 9.875 1 8 C0.875 4.9375 0.875 4.9375 1 2 C0.67 1.34 0.34 0.68 0 0 Z " fill="#E9E8DF" transform="translate(226,276)"/>
<path d="M0 0 C-1.98 0.99 -1.98 0.99 -4 2 C-1.69 2.66 0.62 3.32 3 4 C3 4.33 3 4.66 3 5 C-2.94 5.495 -2.94 5.495 -9 6 C-8.67 4.35 -8.34 2.7 -8 1 C-4.72494404 -0.89608503 -3.64512471 -1.21504157 0 0 Z " fill="#DEDECF" transform="translate(184,211)"/>
<path d="M0 0 C4.75 0.75 4.75 0.75 7 3 C2.05 5.97 2.05 5.97 -3 9 C-2.67 6.69 -2.34 4.38 -2 2 C-1.34 2 -0.68 2 0 2 C0 1.34 0 0.68 0 0 Z " fill="#E0E0D5" transform="translate(280,181)"/>
<path d="M0 0 C0.99 0.33 1.98 0.66 3 1 C3 2.65 3 4.3 3 6 C0.29120665 7.35439668 -2.00933268 7.06501451 -5 7 C-5 6.01 -5 5.02 -5 4 C-4.01 4 -3.02 4 -2 4 C-1.34 2.68 -0.68 1.36 0 0 Z " fill="#D1D3C3" transform="translate(232,206)"/>
<path d="M0 0 C0.66 0 1.32 0 2 0 C3.78409802 3.06246747 4.22880021 5.22079273 4.125 8.75 C4.10695312 9.54921875 4.08890625 10.3484375 4.0703125 11.171875 C4.03550781 12.07679687 4.03550781 12.07679687 4 13 C3.67 13 3.34 13 3 13 C2.67 11.35 2.34 9.7 2 8 C1.34 8.66 0.68 9.32 0 10 C0 6.7 0 3.4 0 0 Z " fill="#E4E4D6" transform="translate(242,92)"/>
<path d="M0 0 C1.32 0.33 2.64 0.66 4 1 C4 1.66 4 2.32 4 3 C5.98 2.67 7.96 2.34 10 2 C9.67 3.32 9.34 4.64 9 6 C5.51669784 5.35494404 2.90567134 4.01782732 0 2 C0 1.34 0 0.68 0 0 Z " fill="#D1D2C6" transform="translate(305,60)"/>
<path d="M0 0 C0.99 0.33 1.98 0.66 3 1 C3.33 4.63 3.66 8.26 4 12 C3.01 11.67 2.02 11.34 1 11 C0.67 7.37 0.34 3.74 0 0 Z " fill="#DEDAD4" transform="translate(302,83)"/>
<path d="M0 0 C0.33 0 0.66 0 1 0 C1.33 2.64 1.66 5.28 2 8 C0.35 8.33 -1.3 8.66 -3 9 C-3.33 7.35 -3.66 5.7 -4 4 C-2.68 3.67 -1.36 3.34 0 3 C0 2.01 0 1.02 0 0 Z " fill="#DEDFD5" transform="translate(182,113)"/>
<path d="M0 0 C2.8203125 0.0234375 2.8203125 0.0234375 6.125 0.375 C7.22070312 0.48585938 8.31640625 0.59671875 9.4453125 0.7109375 C10.28835937 0.80632812 11.13140625 0.90171875 12 1 C12 1.33 12 1.66 12 2 C11.07767578 2.03867188 11.07767578 2.03867188 10.13671875 2.078125 C5.00745409 2.2814648 5.00745409 2.2814648 0.9375 5.0625 C0.4734375 6.0215625 0.4734375 6.0215625 0 7 C-0.66 5.35 -1.32 3.7 -2 2 C-1.34 1.34 -0.68 0.68 0 0 Z " fill="#E8E6DE" transform="translate(142,98)"/>
<path d="M0 0 C1.1725131 0.95117134 2.33787015 1.91117009 3.5 2.875 C4.47453125 3.67550781 4.47453125 3.67550781 5.46875 4.4921875 C5.9740625 4.98976563 6.479375 5.48734375 7 6 C7 6.66 7 7.32 7 8 C5.02 8.66 3.04 9.32 1 10 C0.67 9.34 0.34 8.68 0 8 C0.66 8 1.32 8 2 8 C1.47731534 5.23723823 0.89130413 2.6739124 0 0 Z " fill="#E2E3D9" transform="translate(399,580)"/>
<path d="M0 0 C1.32 0.66 2.64 1.32 4 2 C3.67 3.32 3.34 4.64 3 6 C2.34 6 1.68 6 1 6 C0.67 6.66 0.34 7.32 0 8 C-1.32 6.35 -2.64 4.7 -4 3 C-3.01 2.67 -2.02 2.34 -1 2 C-0.67 1.67 -0.34 1.34 0 1 C0 0.67 0 0.34 0 0 Z " fill="#E3E1D5" transform="translate(244,523)"/>
<path d="M0 0 C-0.33 4.95 -0.66 9.9 -1 15 C-1.33 15 -1.66 15 -2 15 C-2.33 10.71 -2.66 6.42 -3 2 C-3.99 1.67 -4.98 1.34 -6 1 C-3 0 -3 0 0 0 Z " fill="#DCDECE" transform="translate(366,465)"/>
<path d="M0 0 C2.97 0.99 5.94 1.98 9 3 C7.68 4.32 6.36 5.64 5 7 C3.68 6.34 2.36 5.68 1 5 C1.33 4.01 1.66 3.02 2 2 C1.34 2 0.68 2 0 2 C0 1.34 0 0.68 0 0 Z " fill="#E4E3D7" transform="translate(171,170)"/>
<path d="M0 0 C2.0625 1.75 2.0625 1.75 4 4 C3.75 6.25 3.75 6.25 3 8 C1.68 7.34 0.36 6.68 -1 6 C-0.67 4.02 -0.34 2.04 0 0 Z " fill="#D4D6C7" transform="translate(398,580)"/>
<path d="M0 0 C7.42857143 -0.28571429 7.42857143 -0.28571429 11 2 C10.21625 2.144375 9.4325 2.28875 8.625 2.4375 C6.03578982 2.87798925 6.03578982 2.87798925 4 4 C1.875 3.0625 1.875 3.0625 0 2 C0 1.34 0 0.68 0 0 Z " fill="#EAE9E4" transform="translate(147,165)"/>
<path d="M0 0 C2.96175123 0.61277612 4.38058783 1.25372522 7 3 C3.7 3.33 0.4 3.66 -3 4 C-2.01 2.68 -1.02 1.36 0 0 Z " fill="#DCDDD2" transform="translate(195,210)"/>
<path d="M0 0 C0 0.66 0 1.32 0 2 C-0.66 2 -1.32 2 -2 2 C-2.433125 2.928125 -2.433125 2.928125 -2.875 3.875 C-4 6 -4 6 -6 8 C-6.99 7.67 -7.98 7.34 -9 7 C-7.35 5.68 -5.7 4.36 -4 3 C-4.66 2.34 -5.32 1.68 -6 1 C-3.92446352 0.4465236 -2.15634036 0 0 0 Z " fill="#E6E7DE" transform="translate(308,171)"/>
<path d="M0 0 C2.64 0 5.28 0 8 0 C8.33 0.99 8.66 1.98 9 3 C6 4 6 4 2.8125 2.5625 C1.884375 2.046875 0.95625 1.53125 0 1 C0 0.67 0 0.34 0 0 Z " fill="#D7D8C9" transform="translate(152,167)"/>
<path d="M0 0 C1.32 0.99 2.64 1.98 4 3 C3.01 4.485 3.01 4.485 2 6 C2 6.99 2 7.98 2 9 C0.68 7.68 -0.64 6.36 -2 5 C-1.34 5 -0.68 5 0 5 C0 3.35 0 1.7 0 0 Z " fill="#DEDFD5" transform="translate(387,570)"/>
<path d="M0 0 C0.66 0 1.32 0 2 0 C2.33 0.99 2.66 1.98 3 3 C2.360625 3.268125 1.72125 3.53625 1.0625 3.8125 C-1.33131686 4.88667752 -1.33131686 4.88667752 -2 8 C-3.125 4.25 -3.125 4.25 -2 2 C-1.34 2 -0.68 2 0 2 C0 1.34 0 0.68 0 0 Z " fill="#DEDED3" transform="translate(244,144)"/>
<path d="M0 0 C0 3 0 3 -2.1875 5.25 C-5 7 -5 7 -7.8125 6.75 C-8.534375 6.5025 -9.25625 6.255 -10 6 C-9.360625 5.87625 -8.72125 5.7525 -8.0625 5.625 C-7.381875 5.41875 -6.70125 5.2125 -6 5 C-5.67 4.34 -5.34 3.68 -5 3 C-3.68352881 2.30062468 -2.34977849 1.63270867 -1 1 C-0.67 0.67 -0.34 0.34 0 0 Z " fill="#E1E2D7" transform="translate(277,43)"/>
<path d="M0 0 C-0.33 0.99 -0.66 1.98 -1 3 C-3.375 3.625 -3.375 3.625 -6 4 C-6.66 3.34 -7.32 2.68 -8 2 C-5.09399739 0.74335022 -3.20395416 0 0 0 Z " fill="#E2E1DC" transform="translate(295,177)"/>
<path d="M0 0 C1.65 0 3.3 0 5 0 C4.34 3.63 3.68 7.26 3 11 C2.67 11 2.34 11 2 11 C1.34 7.37 0.68 3.74 0 0 Z " fill="#E1DFD6" transform="translate(247,96)"/>
<path d="M0 0 C0.66 0.33 1.32 0.66 2 1 C-1.96 4.465 -1.96 4.465 -6 8 C-6 5 -6 5 -4.6875 3.61328125 C-3.125 2.40885417 -1.5625 1.20442708 0 0 Z " fill="#E3E4DB" transform="translate(163,211)"/>
<path d="M0 0 C0 3 0 3 0 3 Z M-6 1 C-4.68 1 -3.36 1 -2 1 C-1.67 1.99 -1.34 2.98 -1 4 C-1.99 4.66 -2.98 5.32 -4 6 C-4.99 4.68 -5.98 3.36 -7 2 C-6.67 1.67 -6.34 1.34 -6 1 Z " fill="#E2E2D2" transform="translate(321,109)"/>
<path d="M0 0 C0.99 0.33 1.98 0.66 3 1 C2.67 1.66 2.34 2.32 2 3 C1.34 3 0.68 3 0 3 C0 3.66 0 4.32 0 5 C-0.99 4.67 -1.98 4.34 -3 4 C-2.67 3.01 -2.34 2.02 -2 1 C-1.34 0.67 -0.68 0.34 0 0 Z " fill="#CED0BF" transform="translate(282,153)"/>
<path d="M0 0 C-1.32 1.32 -2.64 2.64 -4 4 C-4 3.34 -4 2.68 -4 2 C-5.32 1.34 -6.64 0.68 -8 0 C-5.13822943 -1.43088528 -3.06624227 -0.59991697 0 0 Z " fill="#E3E2DA" transform="translate(313,117)"/>
</svg>
