<?xml version="1.0" encoding="UTF-8"?>
<svg version="1.1" xmlns="http://www.w3.org/2000/svg" width="448" height="556">
<path d="M0 0 C0.86625 0.3403125 0.86625 0.3403125 1.75 0.6875 C0.93240264 8.53925399 -0.73896265 15.70780317 -3.1875 23.1875 C-7.1972718 35.51088943 -9.63690541 47.50879225 -11.16088867 60.37988281 C-11.78482433 65.5720933 -12.59901417 70.61294293 -13.79711914 75.70361328 C-14.40534106 78.36798597 -14.80520751 81.04482553 -15.1875 83.75 C-17.91883258 101.91653763 -21.54817931 118.37410993 -30.25 134.6875 C-31.06822011 136.30962734 -31.88188796 137.93407423 -32.6875 139.5625 C-33.203125 140.59375 -33.71875 141.625 -34.25 142.6875 C-34.91 142.6875 -35.57 142.6875 -36.25 142.6875 C-36.35795898 143.26330811 -36.46591797 143.83911621 -36.57714844 144.43237305 C-37.34270746 146.99821801 -38.42925405 148.61735465 -40.015625 150.76953125 C-40.57636719 151.53716797 -41.13710937 152.30480469 -41.71484375 153.09570312 C-42.30394531 153.88912109 -42.89304688 154.68253906 -43.5 155.5 C-44.65115192 157.06892953 -45.80219508 158.63793886 -46.953125 160.20703125 C-47.51064453 160.95936035 -48.06816406 161.71168945 -48.64257812 162.48681641 C-50.15168307 164.5528966 -51.60021576 166.65174182 -53.046875 168.76171875 C-53.77390625 169.72722656 -54.5009375 170.69273437 -55.25 171.6875 C-55.91 171.6875 -56.57 171.6875 -57.25 171.6875 C-57.58837891 172.49960937 -57.58837891 172.49960937 -57.93359375 173.328125 C-59.65516979 176.41367967 -61.91895044 178.86881266 -64.3125 181.4375 C-64.798396 181.9624707 -65.28429199 182.48744141 -65.78491211 183.02832031 C-69.99103391 187.51649727 -74.3128278 191.99818451 -79.25 195.6875 C-79.91 195.6875 -80.57 195.6875 -81.25 195.6875 C-81.25 196.3475 -81.25 197.0075 -81.25 197.6875 C-85.63461538 200.6875 -85.63461538 200.6875 -88.25 200.6875 C-88.25 201.3475 -88.25 202.0075 -88.25 202.6875 C-90.30958886 204.08932999 -92.35249805 205.37190732 -94.5 206.625 C-99.13929828 209.35608194 -99.13929828 209.35608194 -103.546875 212.44140625 C-105.25 213.6875 -105.25 213.6875 -107.25 213.6875 C-107.91 215.3375 -108.57 216.9875 -109.25 218.6875 C-109.91 218.6875 -110.57 218.6875 -111.25 218.6875 C-111.52457031 219.42097656 -111.79914063 220.15445313 -112.08203125 220.91015625 C-113.18007039 223.52121254 -114.42630196 225.73606501 -115.9375 228.125 C-119.8030043 234.4338848 -123.01340368 241.04194423 -126.25 247.6875 C-126.91 247.6875 -127.57 247.6875 -128.25 247.6875 C-128.25 248.3475 -128.25 249.0075 -128.25 249.6875 C-127.40179688 249.19121094 -126.55359375 248.69492187 -125.6796875 248.18359375 C-124.49532932 247.49646827 -123.31038638 246.81035016 -122.125 246.125 C-121.49625977 245.76075928 -120.86751953 245.39651855 -120.21972656 245.02124023 C-115.89424383 242.54576797 -111.51307484 240.36271415 -107 238.25 C-100.3902652 235.01956655 -95.39148527 230.9033456 -90.25 225.6875 C-89.59 225.0275 -88.93 224.3675 -88.25 223.6875 C-86.93 223.6875 -85.61 223.6875 -84.25 223.6875 C-84.73578543 226.81040635 -85.2486012 229.68330359 -86.25 232.6875 C-71.3050259 231.99720428 -71.3050259 231.99720428 -58.6484375 225.05859375 C-57.25 223.6875 -57.25 223.6875 -55.25 223.6875 C-55.05664062 223.14480469 -54.86328125 222.60210937 -54.6640625 222.04296875 C-52.61880397 218.63608783 -49.70093 216.43332624 -46.625 214 C-45.96419434 213.47470703 -45.30338867 212.94941406 -44.62255859 212.40820312 C-37.6168354 206.98292889 -30.12165533 202.7150719 -22.25 198.6875 C-21.074375 198.06101563 -21.074375 198.06101563 -19.875 197.421875 C1.83248355 186.73772294 27.3724651 185.84324667 50.8125 189.4375 C51.85905762 189.59428223 52.90561523 189.75106445 53.98388672 189.91259766 C60.44997809 190.99183166 65.89372869 192.77463639 71.75 195.6875 C73.18472656 196.30044922 73.18472656 196.30044922 74.6484375 196.92578125 C87.42476207 202.46756241 100.13025453 210.56145213 109.75 220.6875 C111.30145379 222.11625534 112.86498633 223.53195688 114.4375 224.9375 C115.20449219 225.62328125 115.97148437 226.3090625 116.76171875 227.015625 C118.64798664 228.73372145 118.64798664 228.73372145 120.75 229.6875 C120.75 230.3475 120.75 231.0075 120.75 231.6875 C121.61625 232.0896875 121.61625 232.0896875 122.5 232.5 C124.80550043 233.71679189 126.77056192 234.99083879 128.75 236.6875 C128.75 237.3475 128.75 238.0075 128.75 238.6875 C129.30558594 238.92597656 129.86117188 239.16445313 130.43359375 239.41015625 C133.28061436 240.98009847 135.41928174 242.92670449 137.8125 245.125 C139.09833984 246.29869141 139.09833984 246.29869141 140.41015625 247.49609375 C141.18230469 248.21925781 141.95445312 248.94242188 142.75 249.6875 C143.34683594 250.21472656 143.94367188 250.74195313 144.55859375 251.28515625 C145.75 252.6875 145.75 252.6875 145.75 255.6875 C144.92757813 255.86925781 144.10515625 256.05101562 143.2578125 256.23828125 C139.74866723 257.02844676 136.24971383 257.85666088 132.75 258.6875 C131.93917969 258.85765625 131.12835938 259.0278125 130.29296875 259.203125 C123.53145541 260.86093913 117.8415464 264.29176304 111.84594727 267.70996094 C81.78895639 284.79675067 49.34824814 295.00428754 14.96728516 285.95507812 C-2.90122397 280.74173665 -16.30216193 272.44298938 -31.07666016 261.32177734 C-53.85400617 244.14598411 -53.85400617 244.14598411 -81.59375 241.19140625 C-83.10598146 241.42881976 -84.61648844 241.67749612 -86.125 241.9375 C-86.83833496 242.05891357 -87.55166992 242.18032715 -88.28662109 242.30541992 C-92.690907 243.14730935 -96.29600232 244.48119408 -100.25 246.6875 C-99.68716309 246.75219482 -99.12432617 246.81688965 -98.54443359 246.88354492 C-69.96502123 250.2761489 -69.96502123 250.2761489 -60.25 258.6875 C-60.58 260.0075 -60.91 261.3275 -61.25 262.6875 C-62.25160156 262.80867188 -63.25320312 262.92984375 -64.28515625 263.0546875 C-65.6276403 263.22367151 -66.97008623 263.39295858 -68.3125 263.5625 C-68.96927734 263.64113281 -69.62605469 263.71976562 -70.30273438 263.80078125 C-73.59534473 264.22249489 -76.55621593 264.77898926 -79.75390625 265.734375 C-88.19888766 268.03669395 -98.35094837 268.0407078 -106.1796875 263.91796875 C-106.86289063 263.51191406 -107.54609375 263.10585938 -108.25 262.6875 C-115.1533785 258.3852262 -115.1533785 258.3852262 -123 258.125 C-126.89709152 259.31616048 -129.93744116 261.32138654 -133.25 263.6875 C-134.24 263.6875 -135.23 263.6875 -136.25 263.6875 C-136.58 264.6775 -136.91 265.6675 -137.25 266.6875 C-138.69167089 267.86095305 -140.13419369 269.03338281 -141.58203125 270.19921875 C-147.63341459 275.59869662 -151.46056674 283.20939676 -155.515625 290.125 C-156.08796875 290.970625 -156.6603125 291.81625 -157.25 292.6875 C-157.91 292.6875 -158.57 292.6875 -159.25 292.6875 C-159.34667969 293.23921875 -159.44335938 293.7909375 -159.54296875 294.359375 C-160.42900478 297.27693011 -161.87119424 299.40235217 -163.5625 301.9375 C-166.03809442 305.74146215 -168.26293178 309.49827188 -170.22265625 313.5859375 C-173.45935213 320.20701121 -177.01136541 326.65559693 -181.25 332.6875 C-178.21946985 331.51439156 -175.26232195 330.23433959 -172.3125 328.875 C-168.32759402 327.06610633 -164.27891429 325.68536647 -160.125 324.3125 C-154.25005527 322.27593709 -150.66222823 319.99945032 -146.25 315.6875 C-145.59 315.6875 -144.93 315.6875 -144.25 315.6875 C-143.981875 314.883125 -143.71375 314.07875 -143.4375 313.25 C-143.045625 312.404375 -142.65375 311.55875 -142.25 310.6875 C-141.26 310.3575 -140.27 310.0275 -139.25 309.6875 C-138.55264548 308.36995725 -137.89072153 307.03349337 -137.25 305.6875 C-124.39045057 289.97361133 -104.14189001 280.78245365 -84.25 278.6875 C-80.13991574 278.61357762 -76.29588328 278.98240831 -72.25 279.6875 C-70.92935547 279.90019531 -70.92935547 279.90019531 -69.58203125 280.1171875 C-53.92965019 283.34038586 -29.70268185 292.23481815 -18.25 303.6875 C-18.625 305.8125 -18.625 305.8125 -19.25 307.6875 C-19.97703125 307.83445312 -20.7040625 307.98140625 -21.453125 308.1328125 C-29.44328927 309.91523376 -36.0610094 312.84037063 -43.25 316.6875 C-45.76294244 317.99494977 -48.28636362 319.28077545 -50.8125 320.5625 C-51.96878906 321.15804688 -53.12507812 321.75359375 -54.31640625 322.3671875 C-57.25 323.6875 -57.25 323.6875 -60.25 323.6875 C-60.25 324.3475 -60.25 325.0075 -60.25 325.6875 C-81.13091099 335.30059864 -105.36522055 337.54687606 -127.671875 332.36328125 C-138.51276531 330.31582053 -147.16006823 331.52366333 -156.9375 336.5625 C-160.66113291 338.44477598 -164.35595328 340.19027363 -168.25 341.6875 C-178.2447865 345.57347299 -187.33762355 350.75761173 -196.25 356.6875 C-195.6923999 356.69160889 -195.1347998 356.69571777 -194.56030273 356.69995117 C-176.0524749 356.93759662 -162.32811185 361.30055377 -145.98291016 369.79785156 C-135.04777974 375.41177312 -125.22052076 377.49874204 -113.25 373.6875 C-109.69315775 372.23223864 -106.17960619 370.69172571 -102.66015625 369.1484375 C-92.99608493 365.00827407 -81.33246059 361.65533573 -70.875 364.625 C-70.00875 364.975625 -69.1425 365.32625 -68.25 365.6875 C-68.25 367.0075 -68.25 368.3275 -68.25 369.6875 C-69.90234375 371.14453125 -69.90234375 371.14453125 -72.1875 372.5 C-75.57559843 374.59436444 -78.67537118 376.78013376 -81.75 379.3125 C-91.98934486 387.38960974 -102.49954363 388.31053366 -115.25 387.6875 C-118.05358263 387.2188779 -120.53673992 386.55574323 -123.25 385.6875 C-119.74925848 389.38345016 -116.09200522 392.33021978 -111.875 395.1875 C-104.35716181 400.40110915 -97.54367013 406.31682242 -90.74536133 412.42578125 C-89.06204209 413.8941386 -89.06204209 413.8941386 -86.25 415.6875 C-86.25 416.3475 -86.25 417.0075 -86.25 417.6875 C-85.72277344 417.89632813 -85.19554687 418.10515625 -84.65234375 418.3203125 C-81.95052757 419.85793147 -79.90233734 421.82447318 -77.6315918 423.92773438 C-68.61508602 432.03060952 -60.2636432 433.6967949 -48.5078125 435.31640625 C-44.10051596 436.0407889 -40.21507532 437.69721805 -36.25 439.6875 C-35.528125 440.02910156 -34.80625 440.37070312 -34.0625 440.72265625 C-30.35646272 442.51436177 -26.64487459 444.35352372 -23.25 446.6875 C-23.25 447.3475 -23.25 448.0075 -23.25 448.6875 C-22.569375 448.873125 -21.88875 449.05875 -21.1875 449.25 C-16.13895405 451.72056504 -12.28306504 455.57645405 -9.8125 460.625 C-9.626875 461.305625 -9.44125 461.98625 -9.25 462.6875 C-8.59 462.6875 -7.93 462.6875 -7.25 462.6875 C-5.60332031 464.98917867 -4.09946261 467.27771499 -2.625 469.6875 C-2.1820459 470.40502441 -1.7390918 471.12254883 -1.28271484 471.86181641 C5.06521068 482.30958619 10.49091278 493.22210909 14.75 504.6875 C17.300927 511.40741774 19.87401592 518.07505961 22.8359375 524.625 C26.75 533.45673077 26.75 533.45673077 26.75 538.6875 C5.63 538.6875 -15.49 538.6875 -37.25 538.6875 C-40.68103015 522.67602597 -40.68103015 522.67602597 -41.27734375 514.87890625 C-41.43142443 513.12432996 -41.5857281 511.36977324 -41.74023438 509.61523438 C-41.96602683 506.93287878 -42.18747946 504.2502545 -42.40405273 501.56713867 C-43.76741806 484.94076934 -45.28571249 470.97621646 -56.25 457.6875 C-57.15764674 456.40410702 -58.05527657 455.11350037 -58.9375 453.8125 C-61.12483313 450.69567078 -61.12483313 450.69567078 -63.625 448.3125 C-65.85267213 446.08482787 -67.53519992 443.96941535 -69.375 441.4375 C-73.60669287 435.91710585 -78.74299104 431.88331635 -84.25 427.6875 C-85.22453125 426.945 -86.1990625 426.2025 -87.203125 425.4375 C-91.33611151 422.32153112 -95.49160388 419.23820622 -99.67578125 416.19140625 C-100.23209229 415.78277344 -100.78840332 415.37414062 -101.36157227 414.953125 C-102.91976504 413.80891788 -104.48318469 412.67183882 -106.046875 411.53515625 C-106.77390625 410.92542969 -107.5009375 410.31570313 -108.25 409.6875 C-108.25 409.0275 -108.25 408.3675 -108.25 407.6875 C-109.57 407.3575 -110.89 407.0275 -112.25 406.6875 C-111.98445312 407.33976562 -111.71890625 407.99203125 -111.4453125 408.6640625 C-109.57172003 413.30017817 -107.75684994 417.91580854 -106.25 422.6875 C-105.59 422.6875 -104.93 422.6875 -104.25 422.6875 C-102.8828125 424.078125 -102.8828125 424.078125 -101.375 425.9375 C-99.60272166 428.08769063 -97.8768841 430.05079706 -95.875 432 C-94.25 433.6875 -94.25 433.6875 -94.25 435.6875 C-93.26 436.0175 -92.27 436.3475 -91.25 436.6875 C-89.64453125 438.46484375 -89.64453125 438.46484375 -88.0625 440.625 C-87.53269531 441.33527344 -87.00289062 442.04554688 -86.45703125 442.77734375 C-85.25 444.6875 -85.25 444.6875 -85.25 446.6875 C-84.59 446.6875 -83.93 446.6875 -83.25 446.6875 C-70.38948708 464.03357813 -66.0448052 484.65539619 -66.0625 505.875 C-66.06330566 506.88369141 -66.06411133 507.89238281 -66.06494141 508.93164062 C-66.14963593 519.30090793 -67.38985296 528.67698536 -70.25 538.6875 C-91.37 538.6875 -112.49 538.6875 -134.25 538.6875 C-146.69075589 498.87708114 -140.81885784 466.8757183 -122.16015625 430.5703125 C-118.26168026 422.50565401 -120.191959 414.08879849 -122.921875 405.9375 C-126.27557104 397.73080852 -130.91898144 390.754748 -138.25 385.6875 C-138.93191406 385.21054687 -139.61382812 384.73359375 -140.31640625 384.2421875 C-157.33919681 373.23930087 -182.97984403 363.42906387 -203.25 367.6875 C-206.33996833 368.98012369 -206.33996833 368.98012369 -208.25 370.6875 C-208.25 371.0175 -208.25 371.3475 -208.25 371.6875 C-206.991875 372.05875 -205.73375 372.43 -204.4375 372.8125 C-198.63789761 374.75481967 -193.48645783 377.55497612 -188.25 380.6875 C-187.54875 381.08195312 -186.8475 381.47640625 -186.125 381.8828125 C-175.19780852 388.8885522 -169.08785927 402.84082497 -165.25 414.6875 C-164.87137817 415.70650391 -164.87137817 415.70650391 -164.48510742 416.74609375 C-162.51490163 422.18767083 -161.65870207 427.1653781 -161.4375 432.9375 C-161.40180908 433.76451416 -161.36611816 434.59152832 -161.3293457 435.44360352 C-160.8398947 450.94790534 -165.26281633 464.07097806 -172.24536133 477.68798828 C-177.50400292 487.99861607 -180.96527129 498.33815658 -183.25 509.6875 C-184.9 510.0175 -186.55 510.3475 -188.25 510.6875 C-188.52972656 509.94886719 -188.80945313 509.21023438 -189.09765625 508.44921875 C-192.69915942 499.33544705 -197.4285584 491.52111256 -203.1875 483.625 C-205.25 480.6875 -205.25 480.6875 -205.25 478.6875 C-205.91 478.6875 -206.57 478.6875 -207.25 478.6875 C-218.90300107 456.42246074 -226.63996567 434.87315507 -219.25 409.6875 C-218.03604869 406.40469041 -216.67586281 403.18551232 -215.31982422 399.95947266 C-212.20219695 392.40514545 -211.45017827 386.42818362 -214.25 378.6875 C-215.24 378.6875 -216.23 378.6875 -217.25 378.6875 C-217.4975 379.265 -217.745 379.8425 -218 380.4375 C-219.43299988 383.01689979 -221.03424676 384.74871592 -223.25 386.6875 C-223.91 386.6875 -224.57 386.6875 -225.25 386.6875 C-225.6521875 387.55375 -225.6521875 387.55375 -226.0625 388.4375 C-227.27929189 390.74300043 -228.55333879 392.70806192 -230.25 394.6875 C-230.91 394.6875 -231.57 394.6875 -232.25 394.6875 C-232.476875 395.21859375 -232.70375 395.7496875 -232.9375 396.296875 C-234.68369289 399.47744062 -236.93061286 402.16748907 -239.25 404.9375 C-239.70117188 405.49179687 -240.15234375 406.04609375 -240.6171875 406.6171875 C-241.78073029 408.01481582 -243.01094738 409.35635563 -244.25 410.6875 C-244.91 410.6875 -245.57 410.6875 -246.25 410.6875 C-246.91 412.3375 -247.57 413.9875 -248.25 415.6875 C-248.91 415.6875 -249.57 415.6875 -250.25 415.6875 C-250.62898438 416.52861328 -250.62898438 416.52861328 -251.015625 417.38671875 C-254.80933832 424.45791225 -260.9236699 430.71161745 -266.25 436.6875 C-266.58 436.6875 -266.91 436.6875 -267.25 436.6875 C-267.30394705 434.08305652 -267.34364469 431.47973002 -267.375 428.875 C-267.39175781 428.13701172 -267.40851563 427.39902344 -267.42578125 426.63867188 C-267.46074628 422.77503574 -267.44397555 420.97846332 -265.25 417.6875 C-264.59 417.6875 -263.93 417.6875 -263.25 417.6875 C-263.023125 417.15640625 -262.79625 416.6253125 -262.5625 416.078125 C-260.81630711 412.89755938 -258.56938714 410.20751093 -256.25 407.4375 C-255.79882812 406.88320313 -255.34765625 406.32890625 -254.8828125 405.7578125 C-253.71926971 404.36018418 -252.48905262 403.01864437 -251.25 401.6875 C-250.59 401.6875 -249.93 401.6875 -249.25 401.6875 C-248.83790283 400.79889282 -248.83790283 400.79889282 -248.41748047 399.89233398 C-247.30026428 397.78242612 -246.1362591 396.20069754 -244.5703125 394.41015625 C-244.05339844 393.81396484 -243.53648437 393.21777344 -243.00390625 392.60351562 C-242.46636719 391.99185547 -241.92882812 391.38019531 -241.375 390.75 C-240.31434446 389.5332139 -239.25443424 388.31577765 -238.1953125 387.09765625 C-237.68645508 386.51387207 -237.17759766 385.93008789 -236.65332031 385.32861328 C-235.46087402 383.93410667 -234.31488833 382.50008462 -233.1796875 381.05859375 C-231.25 378.6875 -231.25 378.6875 -228.79296875 376.23828125 C-225.28100033 372.71552337 -222.30887718 368.82459248 -219.23828125 364.91796875 C-218.58214844 364.18191406 -217.92601562 363.44585937 -217.25 362.6875 C-216.59 362.6875 -215.93 362.6875 -215.25 362.6875 C-215.25 361.6975 -215.25 360.7075 -215.25 359.6875 C-213.62461265 357.98055199 -211.94929116 356.32089068 -210.25 354.6875 C-208.50366994 352.58211142 -206.79931553 350.47294671 -205.125 348.3125 C-204.65489502 347.70889648 -204.18479004 347.10529297 -203.70043945 346.48339844 C-196.02104528 336.57071757 -188.36313455 326.6641228 -182.25 315.6875 C-181.83524414 315.11596191 -181.42048828 314.54442383 -180.99316406 313.95556641 C-176.55554444 307.29598749 -176.5469465 300.70228379 -176.70800781 292.94091797 C-176.74979404 290.8229392 -176.74906676 288.70816528 -176.7421875 286.58984375 C-176.79567007 275.06105917 -177.98567361 263.43430119 -186.25 254.6875 C-189.468693 252.21781103 -192.70604757 250.00520826 -196.12890625 247.828125 C-201.05081417 244.45239842 -204.56491699 240.32357218 -208.25 235.6875 C-209.19359375 234.76710937 -209.19359375 234.76710937 -210.15625 233.828125 C-215.54158055 228.32222735 -219.52615747 221.51635816 -223.13671875 214.75390625 C-224.11075362 212.94596082 -225.17369596 211.18649406 -226.25 209.4375 C-231.10414599 200.92317135 -233.79649059 191.2763452 -236.35546875 181.87890625 C-236.92004934 179.86466023 -237.5404355 177.86449161 -238.23657227 175.8918457 C-241.48017657 165.6359299 -241.57790168 154.72529242 -241.5 144.0625 C-241.49613281 142.75651855 -241.49226563 141.45053711 -241.48828125 140.10498047 C-241.4146448 131.80144837 -240.93025552 123.65651335 -239.97070312 115.41308594 C-237.76845744 96.3242775 -238.78549305 75.5934757 -249 58.8125 C-250.25 56.6875 -250.25 56.6875 -250.25 53.6875 C-244.32213852 53.07951421 -240.39966906 55.08323879 -235.25 57.6875 C-234.12078125 58.24695313 -232.9915625 58.80640625 -231.828125 59.3828125 C-225.0638267 62.81214615 -218.64177354 66.56993795 -212.4375 70.9375 C-211.84493408 71.3495166 -211.25236816 71.7615332 -210.6418457 72.18603516 C-207.63179977 74.36848433 -205.52752588 76.13972112 -204.25 79.6875 C-203.26 79.6875 -202.27 79.6875 -201.25 79.6875 C-201.25 80.3475 -201.25 81.0075 -201.25 81.6875 C-199.765 82.1825 -199.765 82.1825 -198.25 82.6875 C-198.25 83.3475 -198.25 84.0075 -198.25 84.6875 C-197.59 84.6875 -196.93 84.6875 -196.25 84.6875 C-196.25 85.3475 -196.25 86.0075 -196.25 86.6875 C-194.765 87.1825 -194.765 87.1825 -193.25 87.6875 C-193.25 88.3475 -193.25 89.0075 -193.25 89.6875 C-192.59 89.6875 -191.93 89.6875 -191.25 89.6875 C-189.625 91.0625 -189.625 91.0625 -188.25 92.6875 C-188.25 93.3475 -188.25 94.0075 -188.25 94.6875 C-187.59 94.6875 -186.93 94.6875 -186.25 94.6875 C-183.25 98.14903846 -183.25 98.14903846 -183.25 100.6875 C-181.765 101.1825 -181.765 101.1825 -180.25 101.6875 C-178.56626551 103.84375678 -177.05195948 105.96486835 -175.5625 108.25 C-175.12333252 108.91894287 -174.68416504 109.58788574 -174.23168945 110.27709961 C-166.86691501 121.73148998 -161.43668026 133.74247711 -157.25 146.6875 C-156.96511719 147.51121094 -156.68023437 148.33492187 -156.38671875 149.18359375 C-147.16737613 177.21985104 -150.47871609 205.35523733 -160.25 232.6875 C-161.38481609 235.90687713 -162.48062694 239.13748473 -163.5625 242.375 C-163.84150146 243.15963623 -164.12050293 243.94427246 -164.40795898 244.75268555 C-166.31341283 250.5138813 -166.18461114 254.76195845 -165.25 260.6875 C-165.05707759 262.65618167 -164.87954826 264.62641324 -164.71484375 266.59765625 C-164.62783203 267.60634766 -164.54082031 268.61503906 -164.45117188 269.65429688 C-164.36416016 270.67587891 -164.27714844 271.69746094 -164.1875 272.75 C-164.05118164 274.33458008 -164.05118164 274.33458008 -163.91210938 275.95117188 C-163.69041183 278.52986432 -163.4697293 281.10863923 -163.25 283.6875 C-161.93568828 281.89716193 -160.6236047 280.10518797 -159.3125 278.3125 C-158.21615234 276.81589844 -158.21615234 276.81589844 -157.09765625 275.2890625 C-155.2720431 272.85932891 -155.2720431 272.85932891 -154.25 270.6875 C-153.59 270.6875 -152.93 270.6875 -152.25 270.6875 C-152.15460938 270.11902344 -152.05921875 269.55054688 -151.9609375 268.96484375 C-151.08856134 266.17036407 -149.72962509 264.50763434 -147.875 262.25 C-145.84993023 259.74040433 -144.08427298 257.40747848 -142.4375 254.625 C-142.045625 253.985625 -141.65375 253.34625 -141.25 252.6875 C-140.59 252.6875 -139.93 252.6875 -139.25 252.6875 C-139.08757812 251.83865234 -139.08757812 251.83865234 -138.921875 250.97265625 C-138.14776893 248.3397955 -136.97729462 246.43612844 -135.5 244.125 C-128.94658311 233.38554888 -121.59688732 219.57557196 -123.6953125 206.65234375 C-124.23907439 204.59097141 -124.23907439 204.59097141 -125.2109375 202.3046875 C-138.05183751 169.96106719 -131.27030988 133.56563272 -118.25 102.6875 C-112.09189168 89.00111192 -103.40813025 76.57704513 -94.25 64.75 C-93.78102295 64.14019287 -93.3120459 63.53038574 -92.82885742 62.90209961 C-91.68525026 61.45678018 -90.47339217 60.06594013 -89.25 58.6875 C-88.59 58.6875 -87.93 58.6875 -87.25 58.6875 C-86.92 57.6975 -86.59 56.7075 -86.25 55.6875 C-85.59 55.6875 -84.93 55.6875 -84.25 55.6875 C-83.92 54.6975 -83.59 53.7075 -83.25 52.6875 C-81.24106385 50.96971402 -79.244985 49.38041167 -77.125 47.8125 C-76.53187012 47.36632324 -75.93874023 46.92014648 -75.32763672 46.46044922 C-73.64055146 45.19525093 -71.94640247 43.94016265 -70.25 42.6875 C-69.53328125 42.15125 -68.8165625 41.615 -68.078125 41.0625 C-64.87373799 38.71065633 -61.5509373 36.71920133 -58.09667969 34.76269531 C-55.26550164 33.11429392 -52.54745284 31.30250793 -49.8125 29.5 C-44.63841463 26.11735092 -39.35907914 23.03015489 -33.9375 20.0625 C-28.6981076 17.18820575 -24.02002805 14.14051844 -19.40625 10.31640625 C-16.07647791 7.8009806 -12.43484632 5.94984529 -8.73046875 4.046875 C-6.21647663 2.77333037 -6.21647663 2.77333037 -4.17578125 0.953125 C-2.25 -0.3125 -2.25 -0.3125 0 0 Z " fill="#95AE90" transform="translate(267.25,17.3125)"/>
<path d="M0 0 C4.77059014 1.08666149 9.45860035 1.95796353 14.3125 2.5625 C22.45343657 3.74826677 30.23666537 6.48129699 36.6875 11.6875 C36.3575 13.0075 36.0275 14.3275 35.6875 15.6875 C34.68589844 15.80867188 33.68429688 15.92984375 32.65234375 16.0546875 C31.3098597 16.22367151 29.96741377 16.39295858 28.625 16.5625 C27.96822266 16.64113281 27.31144531 16.71976562 26.63476562 16.80078125 C23.34215527 17.22249489 20.38128407 17.77898926 17.18359375 18.734375 C8.73861234 21.03669395 -1.41344837 21.0407078 -9.2421875 16.91796875 C-9.92539063 16.51191406 -10.60859375 16.10585938 -11.3125 15.6875 C-18.2158785 11.3852262 -18.2158785 11.3852262 -26.0625 11.125 C-30.0169533 12.3358326 -32.99431601 14.25956049 -36.3125 16.6875 C-36.9725 16.6875 -37.6325 16.6875 -38.3125 16.6875 C-38.1875 14.8125 -38.1875 14.8125 -37.3125 12.6875 C-34.6875 11.6875 -34.6875 11.6875 -31.3125 10.6875 C-30.06706757 10.00817322 -28.83760924 9.29881898 -27.625 8.5625 C-24.3125 6.6875 -24.3125 6.6875 -21.3125 6.6875 C-21.3125 6.0275 -21.3125 5.3675 -21.3125 4.6875 C-20.39726562 4.33816406 -19.48203125 3.98882812 -18.5390625 3.62890625 C-17.35054687 3.17386719 -16.16203125 2.71882813 -14.9375 2.25 C-13.75414062 1.79753906 -12.57078125 1.34507812 -11.3515625 0.87890625 C-6.51070795 -1.01885807 -5.20871059 -1.22251161 0 0 Z " fill="#95AE90" transform="translate(170.3125,264.3125)"/>
<path d="M0 0 C1.33897583 0.95043374 2.67105427 1.91059147 4 2.875 C4.7425 3.40867187 5.485 3.94234375 6.25 4.4921875 C6.8275 4.98976563 7.405 5.48734375 8 6 C8 6.66 8 7.32 8 8 C8.88075195 8.40992188 8.88075195 8.40992188 9.77929688 8.828125 C11.93923869 9.96793599 13.65052569 11.20043313 15.53125 12.75 C16.17707031 13.2759375 16.82289063 13.801875 17.48828125 14.34375 C18.82942708 15.44791667 20.17057292 16.55208333 21.51171875 17.65625 C22.15753906 18.1821875 22.80335938 18.708125 23.46875 19.25 C24.34176758 19.96929687 24.34176758 19.96929687 25.23242188 20.703125 C27.07412801 22.05438784 28.93233266 23.03766086 31 24 C29.35 24.66 27.7 25.32 26 26 C26.33 28.31 26.66 30.62 27 33 C26.28972656 32.27296875 25.57945312 31.5459375 24.84765625 30.796875 C22.13711066 28.13466562 19.35631338 25.68035889 16.4375 23.25 C15.92662842 22.82460938 15.41575684 22.39921875 14.8894043 21.9609375 C10.16048043 18.05948513 5.26003137 14.41454938 0.30078125 10.8125 C-2 9 -2 9 -3 7 C-1.02 6.67 0.96 6.34 3 6 C2.2575 5.071875 2.2575 5.071875 1.5 4.125 C0 2 0 2 0 0 Z " fill="#95AE90" transform="translate(173,427)"/>
<path d="M0 0 C1.36125 0.37125 1.36125 0.37125 2.75 0.75 C3.08663062 4.45293685 3.22736015 6.14534381 0.875 9.125 C-1.25 10.75 -1.25 10.75 -3.25 10.75 C-3.435625 11.41 -3.62125 12.07 -3.8125 12.75 C-5.86789835 17.039527 -8.91427192 20.38083104 -12.25 23.75 C-12.58 23.75 -12.91 23.75 -13.25 23.75 C-13.30402274 21.64611431 -13.34280256 19.54183286 -13.375 17.4375 C-13.39820313 16.26574219 -13.42140625 15.09398437 -13.4453125 13.88671875 C-13.25 10.75 -13.25 10.75 -11.25 7.75 C-10.59 7.75 -9.93 7.75 -9.25 7.75 C-9.0025 7.1725 -8.755 6.595 -8.5 6 C-6.2426004 1.93668072 -4.8941563 -0.37647356 0 0 Z " fill="#95AE90" transform="translate(13.25,427.25)"/>
<path d="M0 0 C-1.0535126 7.55017363 -1.0535126 7.55017363 -3 11 C-5.86328125 12.109375 -5.86328125 12.109375 -9.3125 12.75 C-10.44300781 12.97171875 -11.57351562 13.1934375 -12.73828125 13.421875 C-13.81464844 13.61265625 -14.89101562 13.8034375 -16 14 C-17.66726487 14.33032825 -19.33418009 14.66246051 -21 15 C-20 13 -20 13 -17 11.4375 C-12.5537364 9.04476845 -9.47948758 5.5351373 -6.11328125 1.828125 C-4 0 -4 0 0 0 Z " fill="#95AE90" transform="translate(183,241)"/>
<path d="M0 0 C2.0625 0.4375 2.0625 0.4375 4 1 C4 1.99 4 2.98 4 4 C4.763125 3.505 5.52625 3.01 6.3125 2.5 C9 1 9 1 12 1 C12.33 2.65 12.66 4.3 13 6 C10.69631264 7.06652192 8.35981813 8.06421005 6 9 C5.34 8.67 4.68 8.34 4 8 C4 8.99 4 9.98 4 11 C3.34 10.67 2.68 10.34 2 10 C1.01 10 0.02 10 -1 10 C-1.02689216 8.52093108 -1.04634621 7.04172517 -1.0625 5.5625 C-1.07410156 4.73878906 -1.08570312 3.91507812 -1.09765625 3.06640625 C-1 1 -1 1 0 0 Z " fill="#95AE90" transform="translate(99,299)"/>
<path d="M0 0 C7.36827281 4.19744642 13.74898189 9.60692502 18 17 C14.38408541 18.25166274 11.66743314 18.04783804 8 17 C5.125 14.4375 5.125 14.4375 3 12 C6.465 11.505 6.465 11.505 10 11 C7.49225471 8.42060485 5.03032923 6.0235894 2.1875 3.8125 C1.465625 3.214375 0.74375 2.61625 0 2 C0 1.34 0 0.68 0 0 Z " fill="#95AE90" transform="translate(159,416)"/>
<path d="M0 0 C0 0.99 0 1.98 0 3 C-0.78375 3.45375 -1.5675 3.9075 -2.375 4.375 C-5.20274639 5.76196921 -5.20274639 5.76196921 -6 8.5625 C-7 11 -7 11 -9.5 12.25 C-10.325 12.4975 -11.15 12.745 -12 13 C-12.99 13.495 -12.99 13.495 -14 14 C-13.67 12.35 -13.34 10.7 -13 9 C-12.34 9 -11.68 9 -11 9 C-10.7525 8.401875 -10.505 7.80375 -10.25 7.1875 C-7.88311967 3.04545943 -4.36455272 1.57608848 0 0 Z " fill="#95AE90" transform="translate(29,410)"/>
<path d="M0 0 C0.33 0.66 0.66 1.32 1 2 C1.66 2.33 2.32 2.66 3 3 C2.401875 3.268125 1.80375 3.53625 1.1875 3.8125 C-1.04327908 4.8893979 -1.04327908 4.8893979 -2.625 6.625 C-3.07875 7.07875 -3.5325 7.5325 -4 8 C-4.66 8 -5.32 8 -6 8 C-6.66 9.65 -7.32 11.3 -8 13 C-8.66 13 -9.32 13 -10 13 C-10.28875 13.78375 -10.5775 14.5675 -10.875 15.375 C-12 18 -12 18 -14 20 C-14.14745421 13.21710635 -10.83858659 10.03975167 -6.32421875 5.234375 C-4.3042467 3.29248591 -2.28666211 1.61165201 0 0 Z " fill="#95AE90" transform="translate(46,387)"/>
<path d="M0 0 C0.66 0.33 1.32 0.66 2 1 C-6.85329749 6.75574179 -13.64544944 9.16372218 -24.375 9.0625 C-26.24285156 9.04896484 -26.24285156 9.04896484 -28.1484375 9.03515625 C-29.55996094 9.01775391 -29.55996094 9.01775391 -31 9 C-31 8.67 -31 8.34 -31 8 C-29.44152344 7.83564453 -29.44152344 7.83564453 -27.8515625 7.66796875 C-17.87460891 6.55782159 -8.67186228 5.41991393 0 0 Z " fill="#95AE90" transform="translate(183,396)"/>
<path d="M0 0 C0.66 0.33 1.32 0.66 2 1 C0.87970983 2.48273699 -0.24638618 3.96108886 -1.375 5.4375 C-2.31472656 6.67306641 -2.31472656 6.67306641 -3.2734375 7.93359375 C-5 10 -5 10 -7 11 C-9.04055005 11.07065617 -11.08334257 11.08421976 -13.125 11.0625 C-14.22070312 11.05347656 -15.31640625 11.04445313 -16.4453125 11.03515625 C-17.70988281 11.01775391 -17.70988281 11.01775391 -19 11 C-16.25349672 9.58946551 -13.47832926 8.36387259 -10.625 7.1875 C-6.40457433 5.3388838 -3.37562708 3.11596346 0 0 Z " fill="#95AE90" transform="translate(121,333)"/>
<path d="M0 0 C0.99 0.66 1.98 1.32 3 2 C-12.62540366 11.46250449 -12.62540366 11.46250449 -20 14 C-20.66 13.67 -21.32 13.34 -22 13 C-18.88562874 9.4064947 -16.45846703 8.45913466 -12 7 C-5.60599159 4.07307857 -5.60599159 4.07307857 0 0 Z " fill="#95AE90" transform="translate(230,327)"/>
<path d="M0 0 C5.75 1.75 5.75 1.75 8 4 C7.625 6.125 7.625 6.125 7 8 C5.06524329 8.53093324 3.12706845 9.04942317 1.1875 9.5625 C-0.43091797 9.99755859 -0.43091797 9.99755859 -2.08203125 10.44140625 C-5 11 -5 11 -8 10 C-6.30820672 7.95780294 -5.36272334 7.08206694 -2.73828125 6.48828125 C-1.93777344 6.43027344 -1.13726562 6.37226563 -0.3125 6.3125 C0.49574219 6.24675781 1.30398437 6.18101562 2.13671875 6.11328125 C3.05904297 6.05720703 3.05904297 6.05720703 4 6 C3.33131686 2.88667752 3.33131686 2.88667752 0.9375 1.8125 C0.298125 1.544375 -0.34125 1.27625 -1 1 C-0.67 0.67 -0.34 0.34 0 0 Z " fill="#95AE90" transform="translate(241,317)"/>
<path d="M0 0 C5.89888504 -0.60501385 9.86305481 1.44314945 15 4 C16.07121094 4.52851562 17.14242187 5.05703125 18.24609375 5.6015625 C21.1705877 7.05519789 24.08787971 8.52176635 27 10 C27 10.33 27 10.66 27 11 C21.6649749 11.75156108 17.96429386 9.10306102 13.5 6.5625 C7.11029568 2.81686786 7.11029568 2.81686786 0 1 C0 0.67 0 0.34 0 0 Z " fill="#95AE90" transform="translate(17,71)"/>
<path d="M0 0 C0.66 0.33 1.32 0.66 2 1 C-3.29212603 7.36937698 -8.58713744 13.73247493 -14 20 C-14.33 19.01 -14.66 18.02 -15 17 C-13.671875 15.1328125 -13.671875 15.1328125 -11.75 13.125 C-9.64707426 10.85583507 -7.95494787 8.92375794 -6.375 6.25 C-4.6809252 3.4778776 -2.60578287 1.90151723 0 0 Z " fill="#95AE90" transform="translate(15,434)"/>
<path d="M0 0 C4.35154383 0.5836646 8.0265522 1.65646739 12.0625 3.375 C13.06410156 3.79523438 14.06570312 4.21546875 15.09765625 4.6484375 C17.86302055 5.93621146 20.41803883 7.37976014 23 9 C20 10 20 10 16.4375 8.25 C15.74269531 7.87488281 15.04789063 7.49976563 14.33203125 7.11328125 C11.03913578 5.54129598 7.63319395 4.68876815 4.1015625 3.80859375 C2 3 2 3 0 0 Z " fill="#95AE90" transform="translate(95,377)"/>
<path d="M0 0 C0.99 0.33 1.98 0.66 3 1 C2.67 3.64 2.34 6.28 2 9 C-0.31 9.33 -2.62 9.66 -5 10 C-4.35699811 8.51960029 -3.71051501 7.04071218 -3.0625 5.5625 C-2.70285156 4.73878906 -2.34320313 3.91507812 -1.97265625 3.06640625 C-1 1 -1 1 0 0 Z " fill="#95AE90" transform="translate(68,358)"/>
<path d="M0 0 C1.5625 1.1875 1.5625 1.1875 3 3 C2.6875 5.6875 2.6875 5.6875 2 8 C1.34 8 0.68 8 0 8 C0 8.66 0 9.32 0 10 C0.66 10.33 1.32 10.66 2 11 C0.35 11.66 -1.3 12.32 -3 13 C-3 12.34 -3 11.68 -3 11 C-2.34 11 -1.68 11 -1 11 C-1.34227572 8.02934491 -1.34227572 8.02934491 -2 5 C-2.66 4.67 -3.32 4.34 -4 4 C-3.01 3.67 -2.02 3.34 -1 3 C-0.67 2.01 -0.34 1.02 0 0 Z " fill="#95AE90" transform="translate(139,257)"/>
<path d="M0 0 C0.5775 0.680625 1.155 1.36125 1.75 2.0625 C0.863125 1.959375 -0.02375 1.85625 -0.9375 1.75 C-5.27959813 2.1596319 -6.43867305 3.86071097 -9.25 7.0625 C-10.24 7.5575 -10.24 7.5575 -11.25 8.0625 C-9.29225352 1.28568527 -9.29225352 1.28568527 -6.25 -0.9375 C-3.16588271 -2.42981482 -2.65937446 -2.2900169 0 0 Z " fill="#95AE90" transform="translate(221.25,236.9375)"/>
<path d="M0 0 C1.98 0 3.96 0 6 0 C6.66 1.32 7.32 2.64 8 4 C5.36 5.65 2.72 7.3 0 9 C0 8.01 0 7.02 0 6 C1.32 5.34 2.64 4.68 4 4 C3.04134491 1.66924071 3.04134491 1.66924071 0 0 Z " fill="#95AE90" transform="translate(192,382)"/>
<path d="M0 0 C4.43458973 1.3937282 6.87378374 3.60582235 10 7 C7.3125 7.375 7.3125 7.375 4 7 C1.93601924 5.176017 0.60958947 3.27236161 -1 1 C-0.67 0.67 -0.34 0.34 0 0 Z " fill="#95AE90" transform="translate(45,83)"/>
<path d="M0 0 C-0.25 2.375 -0.25 2.375 -1 5 C-3.48244217 6.71202908 -6.07003641 7.37215066 -9 8 C-7.70948419 4.12845257 -4.40863591 0 0 0 Z " fill="#95AE90" transform="translate(192,65)"/>
<path d="M0 0 C4.92307692 4.30769231 4.92307692 4.30769231 5.3125 7.8125 C5.209375 8.534375 5.10625 9.25625 5 10 C4.34 10 3.68 10 3 10 C0.96564469 6.27034861 0 4.33094958 0 0 Z " fill="#95AE90" transform="translate(40,220)"/>
<path d="M0 0 C2.625 0.9375 2.625 0.9375 5 2 C5 2.99 5 3.98 5 5 C4.34 5.66 3.68 6.32 3 7 C2.34 5.68 1.68 4.36 1 3 C0.01 3 -0.98 3 -2 3 C-2 2.34 -2 1.68 -2 1 C-1.34 0.67 -0.68 0.34 0 0 Z " fill="#95AE90" transform="translate(194,448)"/>
<path d="M0 0 C0.99 0.33 1.98 0.66 3 1 C3 4 3 4 1.6875 5.38671875 C0.125 6.59114583 -1.4375 7.79557292 -3 9 C-2.44271087 5.65626525 -1.64826111 2.96687001 0 0 Z " fill="#95AE90" transform="translate(87,329)"/>
<path d="M0 0 C0.66 0.33 1.32 0.66 2 1 C1.56179109 5.55737263 1.14958831 8.57653445 -2 12 C-2.28571429 3.42857143 -2.28571429 3.42857143 0 0 Z " fill="#95AE90" transform="translate(49,426)"/>
<path d="M0 0 C0 0.33 0 0.66 0 1 C-6.21324498 1.73030908 -11.84098757 2.23180249 -18 1 C-18 0.67 -18 0.34 -18 0 C-11.96496237 -1.50875941 -6.10261631 -0.64186094 0 0 Z " fill="#95AE90" transform="translate(195,297)"/>
<path d="M0 0 C2 1 2 1 2.8125 3.375 C3 6 3 6 1.5625 7.8125 C1.046875 8.204375 0.53125 8.59625 0 9 C-1.125 6.1875 -1.125 6.1875 -2 3 C-1.34 2.01 -0.68 1.02 0 0 Z " fill="#95AE90" transform="translate(276,511)"/>
<path d="M0 0 C1.32 0.33 2.64 0.66 4 1 C3.67 2.32 3.34 3.64 3 5 C0.69 4.34 -1.62 3.68 -4 3 C-3.34 2.34 -2.68 1.68 -2 1 C-1.34 1.33 -0.68 1.66 0 2 C0 1.34 0 0.68 0 0 Z " fill="#95AE90" transform="translate(244,467)"/>
<path d="M0 0 C-2.77280706 3.08089673 -5.06326356 4.68775452 -9 6 C-7.54266958 1.38512035 -7.54266958 1.38512035 -5.0625 -0.375 C-3 -1 -3 -1 0 0 Z " fill="#95AE90" transform="translate(187,213)"/>
<path d="M0 0 C2.97 0.495 2.97 0.495 6 1 C5.67 1.99 5.34 2.98 5 4 C3.0625 4.75 3.0625 4.75 1 5 C0.34 4.67 -0.32 4.34 -1 4 C-0.67 2.68 -0.34 1.36 0 0 Z " fill="#95AE90" transform="translate(10,427)"/>
<path d="M0 0 C0.66 0.33 1.32 0.66 2 1 C0.35 2.65 -1.3 4.3 -3 6 C-2.42655063 3.13275314 -2.1385485 2.1385485 0 0 Z M-5 6 C-4.34 6.33 -3.68 6.66 -3 7 C-4.32 8.32 -5.64 9.64 -7 11 C-7.66 10.67 -8.32 10.34 -9 10 C-9 9.34 -9 8.68 -9 8 C-7.125 6.9375 -7.125 6.9375 -5 6 Z " fill="#95AE90" transform="translate(121,333)"/>
<path d="M0 0 C2.475 0.495 2.475 0.495 5 1 C5.33 2.32 5.66 3.64 6 5 C4.68 5 3.36 5 2 5 C2 4.34 2 3.68 2 3 C1.34 3 0.68 3 0 3 C0 2.01 0 1.02 0 0 Z " fill="#95AE90" transform="translate(229,458)"/>
<path d="M0 0 C2.72426311 2.35277269 3.8141763 4.62496331 5 8 C3.02 7.01 1.04 6.02 -1 5 C-0.67 3.35 -0.34 1.7 0 0 Z " fill="#95AE90" transform="translate(265,490)"/>
<path d="M0 0 C0.99 0.99 1.98 1.98 3 3 C1.68 3.99 0.36 4.98 -1 6 C-1.66 5.67 -2.32 5.34 -3 5 C-1.125 1.125 -1.125 1.125 0 0 Z " fill="#95AE90" transform="translate(107,300)"/>
<path d="M0 0 C0.33 0.66 0.66 1.32 1 2 C0.36971413 3.68076231 -0.29788106 5.34795544 -1 7 C-1 7.66 -1 8.32 -1 9 C-2.32 9 -3.64 9 -5 9 C-3.7508258 5.54074837 -2.32472205 2.85306797 0 0 Z " fill="#95AE90" transform="translate(167,90)"/>
<path d="M0 0 C-0.99 0 -1.98 0 -3 0 C-3.33 0.99 -3.66 1.98 -4 3 C-4.99 3.33 -5.98 3.66 -7 4 C-7 3.34 -7 2.68 -7 2 C-7.66 1.67 -8.32 1.34 -9 1 C-5.57367167 -0.61798838 -3.61944899 -1.34053666 0 0 Z " fill="#95AE90" transform="translate(171,300)"/>
<path d="M0 0 C0.66 0.33 1.32 0.66 2 1 C-1.465 3.97 -1.465 3.97 -5 7 C-5.66 6.67 -6.32 6.34 -7 6 C-4.69 4.02 -2.38 2.04 0 0 Z " fill="#95AE90" transform="translate(247,28)"/>
</svg>
