<?xml version="1.0" encoding="UTF-8"?>
<svg version="1.1" xmlns="http://www.w3.org/2000/svg" width="500" height="500" viewBox="0 0 500 500">
<path d="M0 0 C2 0.0625 2 0.0625 4 1 C5.25 3.5625 5.25 3.5625 6 6 C6.66 6 7.32 6 8 6 C9.19824219 7.39501953 9.19824219 7.39501953 10.546875 9.3828125 C11.05573242 10.12781006 11.56458984 10.87280762 12.08886719 11.64038086 C12.63704102 12.46030518 13.18521484 13.28022949 13.75 14.125 C14.59933105 15.38292358 14.59933105 15.38292358 15.46582031 16.66625977 C19.96869987 23.37436728 24.38210853 30.1408614 28.75 36.9375 C29.35811523 37.87803223 29.96623047 38.81856445 30.59277344 39.78759766 C31.15512695 40.67108887 31.71748047 41.55458008 32.296875 42.46484375 C32.79541992 43.244646 33.29396484 44.02444824 33.80761719 44.82788086 C34.94976317 46.90848544 35.5526627 48.68050992 36 51 C36.66 51 37.32 51 38 51 C40.33912386 55.95104877 42.67127773 60.90526907 44.99560547 65.86328125 C45.82617678 67.6302137 46.66407692 69.39369909 47.50390625 71.15625 C55 87.13538401 55 87.13538401 55 95 C55.92039062 94.50371094 56.84078125 94.00742188 57.7890625 93.49609375 C61.18000015 91.67184081 64.58289892 89.87079184 67.98779297 88.07275391 C69.71130633 87.15390924 71.42155069 86.21024962 73.12890625 85.26171875 C85.44353658 78.67189741 98.81077435 74.47732017 112 70 C113.0007959 69.65952637 114.0015918 69.31905273 115.03271484 68.96826172 C117.64215051 68.08871256 120.25620316 67.22622059 122.875 66.375 C123.62225342 66.12741943 124.36950684 65.87983887 125.1394043 65.62475586 C129.24721347 64.32797969 132.71598718 63.90695151 137 64 C137.34226551 86.54388855 137.27736499 108.63523077 134 131 C133.8772168 131.85190918 133.75443359 132.70381836 133.62792969 133.58154297 C131.74187791 146.26173407 129.02093866 159.15736408 124 171 C123.49855469 172.18464844 122.99710937 173.36929688 122.48046875 174.58984375 C121.00105856 178.06606539 119.50404379 181.53437159 118 185 C118.98097656 184.96777344 119.96195312 184.93554688 120.97265625 184.90234375 C125.26192571 184.90986313 129.25692431 185.65426134 133.4375 186.5625 C134.24952881 186.73740967 135.06155762 186.91231934 135.89819336 187.0925293 C150.32078146 190.31368709 164.56545182 194.53205111 178.4375 199.625 C179.19490479 199.88966064 179.95230957 200.15432129 180.73266602 200.42700195 C182.80859375 201.2265625 182.80859375 201.2265625 186 203 C186.97265625 205.7109375 186.97265625 205.7109375 187 208 C186.34 208 185.68 208 185 208 C184.89558594 208.56203125 184.79117187 209.1240625 184.68359375 209.703125 C183.87386765 212.42380471 182.63796662 214.39257807 181.0625 216.75 C180.53785156 217.54921875 180.01320313 218.3484375 179.47265625 219.171875 C178.74369141 220.07679688 178.74369141 220.07679688 178 221 C177.34 221 176.68 221 176 221 C175.71125 221.763125 175.4225 222.52625 175.125 223.3125 C174 226 174 226 172 229 C171.34 229 170.68 229 170 229 C169.74863281 229.56847656 169.49726563 230.13695312 169.23828125 230.72265625 C166.68066599 235.42640923 162.64603915 239.12445338 159 243 C158.53158691 243.50772949 158.06317383 244.01545898 157.58056641 244.53857422 C145.3879822 257.68871246 131.38180131 267.70321271 115 275 C114.18917969 275.38542969 113.37835938 275.77085937 112.54296875 276.16796875 C87.62283243 287.24830194 57.9450936 285.32600573 32.875 275.875 C22.47978705 271.73422095 12.56193495 266.23584214 3.16796875 260.171875 C0.97680981 258.6983518 0.97680981 258.6983518 -1.875 259.5 C-5.13122609 260.9470921 -5.13122609 260.9470921 -8.21875 263.34375 C-11.84843723 265.97138803 -15.6051835 268.03462443 -19.625 270 C-20.32592773 270.34321289 -21.02685547 270.68642578 -21.74902344 271.04003906 C-47.21976794 283.34144815 -76.61508818 288.01060074 -104 279 C-117.38476264 274.32776701 -131.08149576 268.1895437 -142 259 C-142 258.34 -142 257.68 -142 257 C-142.71800781 256.77441406 -143.43601563 256.54882812 -144.17578125 256.31640625 C-147.6116878 254.71488411 -149.58122903 252.67783029 -152.1875 249.9375 C-155.26744837 246.53095187 -155.26744837 246.53095187 -159 244 C-159 243.34 -159 242.68 -159 242 C-159.66 242 -160.32 242 -161 242 C-166 236.52380952 -166 236.52380952 -166 234 C-166.66 234 -167.32 234 -168 234 C-172 229.52941176 -172 229.52941176 -172 227 C-172.66 227 -173.32 227 -174 227 C-176.41874348 224.29115866 -178.44916457 221.26298014 -180.5625 218.3125 C-181.46645508 217.08756836 -181.46645508 217.08756836 -182.38867188 215.83789062 C-183.25008789 214.64389648 -183.25008789 214.64389648 -184.12890625 213.42578125 C-184.65556885 212.69786377 -185.18223145 211.96994629 -185.72485352 211.2199707 C-187.11527942 208.79930389 -187.6037767 206.74821446 -188 204 C-167.97476829 192.92722482 -141.95012067 184.73114875 -119 185 C-119.31638428 184.21858643 -119.31638428 184.21858643 -119.63916016 183.42138672 C-126.67997118 165.8823941 -132.98205127 147.89143491 -135 129 C-135.08733398 128.31292969 -135.17466797 127.62585938 -135.26464844 126.91796875 C-136.92457973 113.79501021 -137.21121006 100.70909757 -137.25 87.5 C-137.25517639 86.67846436 -137.26035278 85.85692871 -137.26568604 85.01049805 C-137.27746458 82.64224123 -137.27420061 80.27451178 -137.265625 77.90625 C-137.27156174 76.84337769 -137.27156174 76.84337769 -137.27761841 75.7590332 C-137.23786915 71.47255556 -136.56487837 67.98756495 -135 64 C-115.36864854 67.42769629 -95.86173688 74.23628685 -78 83 C-77.11828125 83.42152344 -76.2365625 83.84304687 -75.328125 84.27734375 C-70.03348337 86.85067113 -65.01625074 89.73188047 -60.03125 92.86328125 C-58.09706407 94.16278261 -58.09706407 94.16278261 -56 94 C-55.82984375 93.47792969 -55.6596875 92.95585937 -55.484375 92.41796875 C-45.86774239 63.2100048 -29.87854868 38.83458703 -12 14 C-11.46149414 13.24267578 -10.92298828 12.48535156 -10.36816406 11.70507812 C-9.83674805 10.97224609 -9.30533203 10.23941406 -8.7578125 9.484375 C-8.03682373 8.48229004 -8.03682373 8.48229004 -7.30126953 7.45996094 C-6.65714111 6.73728027 -6.65714111 6.73728027 -6 6 C-5.34 6 -4.68 6 -4 6 C-3.71125 5.38125 -3.4225 4.7625 -3.125 4.125 C-2 2 -2 2 0 0 Z M0 19 C-0.825 19.94875 -1.65 20.8975 -2.5 21.875 C-2.9640625 22.40867187 -3.428125 22.94234375 -3.90625 23.4921875 C-5.19572458 24.95936421 -5.19572458 24.95936421 -5 27 C-5.66 27 -6.32 27 -7 27 C-9.75896892 30.45975965 -12.13871829 34.20157872 -14.5859375 37.88671875 C-16.05709957 40.08533389 -17.55886528 42.26098874 -19.0625 44.4375 C-37.82445167 71.2800445 -37.82445167 71.2800445 -45.9296875 102.1171875 C-44.51390209 104.98445039 -42.34110262 106.391308 -39.8125 108.3125 C-36.33956872 111.03672142 -33.23241657 113.64185584 -30.4375 117.0625 C-29.633125 118.031875 -28.82875 119.00125 -28 120 C-27.34 120 -26.68 120 -26 120 C-26 120.66 -26 121.32 -26 122 C-25.34 122 -24.68 122 -24 122 C-23.74734375 122.55429688 -23.4946875 123.10859375 -23.234375 123.6796875 C-21.80038799 126.37522004 -20.08537729 128.68494415 -18.25 131.125 C-12.06032391 139.58980027 -7.33672497 148.04828297 -3.35913086 157.73120117 C-2.00084915 161.55649921 -2.00084915 161.55649921 1 164 C1.24492187 163.25878906 1.48984375 162.51757812 1.7421875 161.75390625 C7.8118124 144.65430784 17.99820002 128.67054393 31 116 C31.66902344 115.319375 32.33804688 114.63875 33.02734375 113.9375 C33.65769531 113.298125 34.28804688 112.65875 34.9375 112 C35.61554688 111.30777344 36.29359375 110.61554688 36.9921875 109.90234375 C38.77418666 108.21395155 40.53440109 106.92557113 42.5625 105.5625 C45.17949327 103.35812683 45.17949327 103.35812683 45.12695312 101.09960938 C44.39140579 95.40292211 42.99172707 90.29522979 40.9375 84.9375 C40.62804443 84.11749512 40.31858887 83.29749023 39.99975586 82.45263672 C33.1439698 64.70885435 17.90066097 27.95033049 0 19 Z M-125 79 C-125.36810014 97.93544856 -124.94258807 116.2383162 -122 135 C-121.89848633 135.70398926 -121.79697266 136.40797852 -121.69238281 137.13330078 C-120.42178007 145.81575283 -117.84912735 153.9936527 -115.125 162.3125 C-114.79733643 163.31547119 -114.46967285 164.31844238 -114.13208008 165.35180664 C-113.14659403 168.26011008 -112.09334919 171.13063955 -111 174 C-110.48397217 175.43859375 -110.48397217 175.43859375 -109.95751953 176.90625 C-108.0329445 181.85014814 -108.0329445 181.85014814 -103.97021484 184.90258789 C-101.48260445 185.30261755 -99.14404764 185.38570114 -96.625 185.375 C-94.82374041 185.46050956 -93.02291359 185.55565027 -91.22265625 185.66015625 C-90.33594238 185.70543457 -89.44922852 185.75071289 -88.53564453 185.79736328 C-75.53167294 186.83657919 -61.79656539 192.39539193 -50.70703125 199.08203125 C-49.02945686 200.157873 -49.02945686 200.157873 -47 200 C-48.24477121 196.11790532 -49.65807103 192.41131245 -51.3125 188.6875 C-53.39721375 183.71625951 -55.13747054 178.71936238 -56.6875 173.5625 C-56.88964111 172.90789795 -57.09178223 172.2532959 -57.30004883 171.57885742 C-60.55025973 160.4296737 -61.3362272 149.25041394 -61.25 137.6875 C-61.24613281 136.42526611 -61.24226563 135.16303223 -61.23828125 133.86254883 C-61.15420066 124.77425479 -60.57931804 115.95416927 -59 107 C-77.81446894 92.52733158 -101.85182235 83.51464458 -125 79 Z M62 104 C61.26644287 104.44448486 60.53288574 104.88896973 59.77709961 105.34692383 C57.78779913 106.84331031 57.78779913 106.84331031 57.72949219 109.13793945 C57.83422852 109.95480225 57.93896484 110.77166504 58.046875 111.61328125 C58.2020459 112.97984863 58.2020459 112.97984863 58.36035156 114.37402344 C58.48893555 115.3437207 58.61751953 116.31341797 58.75 117.3125 C58.97303847 119.3237478 59.1917998 121.3354746 59.40625 123.34765625 C59.51324219 124.3236377 59.62023437 125.29961914 59.73046875 126.30517578 C62.05050947 149.50137996 57.22187533 175.58792033 46.2890625 196.23046875 C45.86367188 197.14441406 45.43828125 198.05835938 45 199 C45.33 199.66 45.66 200.32 46 201 C46.57105469 200.62488281 47.14210938 200.24976563 47.73046875 199.86328125 C60.46398277 191.82638925 75.45540251 186.5181917 90.546875 185.58984375 C91.96516602 185.4983606 91.96516602 185.4983606 93.41210938 185.4050293 C95.27114755 185.3034731 97.13252633 185.2372018 98.99414062 185.21020508 C101.54215315 185.0799637 103.60475644 184.88350566 106 184 C108.12345931 181.61073017 108.99913517 179.00323198 110 176 C110.59219745 174.5293218 111.18596378 173.05927442 111.78125 171.58984375 C117.86712611 155.35679279 121.67129298 139.70452847 123.70092773 122.50073242 C123.88459252 120.96499495 124.08159405 119.43069453 124.30102539 117.8996582 C125.32597801 110.28069326 125.10890056 102.60759939 125.0625 94.9375 C125.05747414 93.48502759 125.05291316 92.03255349 125.04882812 90.58007812 C125.03791042 87.05334985 125.02070586 83.52668598 125 80 C104.11565055 80 79.18998126 92.98665157 62 104 Z M-49 115 C-53.32646122 145.09208292 -49.07255577 175.73509179 -33 202 C-32.45085937 202.90492188 -31.90171875 203.80984375 -31.3359375 204.7421875 C-27.2228132 211.20066779 -22.59388367 217.14038886 -17.75 223.0625 C-17.14736328 223.80129395 -16.54472656 224.54008789 -15.92382812 225.30126953 C-15.34568359 225.99720215 -14.76753906 226.69313477 -14.171875 227.41015625 C-13.6572168 228.03027588 -13.14255859 228.65039551 -12.61230469 229.28930664 C-10.88588631 231.12107732 -9.05113362 232.54780851 -7 234 C-3.69544943 199.30942134 -3.69544943 199.30942134 -11 166 C-11.51825445 164.67782074 -12.03108872 163.35350675 -12.5390625 162.02734375 C-16.4512428 152.13953221 -21.8659607 143.64596764 -28 135 C-28.66 134.01 -29.32 133.02 -30 132 C-30.66 132 -31.32 132 -32 132 C-32 131.34 -32 130.68 -32 130 C-32.66 130 -33.32 130 -34 130 C-34.2578125 129.41734375 -34.515625 128.8346875 -34.78125 128.234375 C-36.09834017 125.8197097 -37.55088384 124.18259823 -39.5 122.25 C-40.1084375 121.63640625 -40.716875 121.0228125 -41.34375 120.390625 C-42.89484277 118.78565912 -42.89484277 118.78565912 -45 119 C-45 118.34 -45 117.68 -45 117 C-45.66 117 -46.32 117 -47 117 C-47 116.34 -47 115.68 -47 115 C-47.66 115 -48.32 115 -49 115 Z M47 115 C47 115.66 47 116.32 47 117 C46.18789063 117.32484375 46.18789063 117.32484375 45.359375 117.65625 C42.18354656 119.46499997 39.79271919 121.91723799 37.25 124.5 C36.74339844 124.99886719 36.23679687 125.49773437 35.71484375 126.01171875 C32.87194401 128.53061637 32.87194401 128.53061637 32 132 C31.34 132 30.68 132 30 132 C11.51267255 155.91669127 4.96546439 180.30957228 5.625 210.25 C5.65518347 212.66402866 5.68254424 215.07809433 5.70703125 217.4921875 C5.77225248 223.32895087 5.87191615 229.16429467 6 235 C7.70884005 233.37660195 9.37446717 231.70680947 11 230 C11 229.34 11 228.68 11 228 C11.66 228 12.32 228 13 228 C14.3606009 226.51363242 14.3606009 226.51363242 15.625 224.625 C16.07101562 223.99851562 16.51703125 223.37203125 16.9765625 222.7265625 C18.16996969 221.04777357 18.16996969 221.04777357 18 219 C18.66 219 19.32 219 20 219 C22.30034906 216.21465851 24.17071098 213.0972112 26.125 210.0625 C26.70958984 209.15604736 27.29417969 208.24959473 27.89648438 207.31567383 C45.51903937 179.47739186 53.45637456 147.69315336 48 115 C47.67 115 47.34 115 47 115 Z M-130.0625 196.5625 C-131.00480469 196.73450928 -131.94710937 196.90651855 -132.91796875 197.08374023 C-145.71942666 199.55895616 -159.48800407 202.6875889 -171 209 C-170.35952602 212.44748958 -169.00294981 214.84644185 -167.0625 217.75 C-166.53785156 218.54921875 -166.01320313 219.3484375 -165.47265625 220.171875 C-164.98667969 220.77515625 -164.50070313 221.3784375 -164 222 C-163.34 222 -162.68 222 -162 222 C-161.77183594 222.54398438 -161.54367188 223.08796875 -161.30859375 223.6484375 C-159.61965272 226.68348973 -157.41386618 229.0987186 -155.0625 231.625 C-154.34139038 232.40472168 -154.34139038 232.40472168 -153.60571289 233.20019531 C-148.71049093 238.42197729 -143.60155374 243.53456386 -138 248 C-137.34 248 -136.68 248 -136 248 C-136 248.66 -136 249.32 -136 250 C-134.05385473 251.59348861 -134.05385473 251.59348861 -131.625 253.125 C-130.81289062 253.66382813 -130.00078125 254.20265625 -129.1640625 254.7578125 C-127.12677974 256.1659413 -127.12677974 256.1659413 -125 256 C-125 256.66 -125 257.32 -125 258 C-95.29494158 272.58180429 -69.73863971 277.19208611 -37.99609375 266.5390625 C-31.30882992 264.10642755 -25.14191183 260.55630814 -19 257 C-19 256.67 -19 256.34 -19 256 C-20.09054688 255.84144531 -21.18109375 255.68289063 -22.3046875 255.51953125 C-38.43469706 253.0720326 -53.12383731 249.55675157 -67.546875 241.76953125 C-70.66778984 240.17023892 -73.64743698 239.00268373 -77 238 C-77 237.34 -77 236.68 -77 236 C-78.48636758 234.6393991 -78.48636758 234.6393991 -80.375 233.375 C-81.00148438 232.92898438 -81.62796875 232.48296875 -82.2734375 232.0234375 C-83.95222643 230.83003031 -83.95222643 230.83003031 -86 231 C-86 230.34 -86 229.68 -86 229 C-87.52340515 227.53817841 -87.52340515 227.53817841 -89.5 226 C-98.77544292 218.07994751 -107.84375173 206.52414294 -112 195 C-118.21179284 194.82005235 -123.95613139 195.44237404 -130.0625 196.5625 Z M-100 195 C-98.35 197.97 -96.7 200.94 -95 204 C-94.34 204 -93.68 204 -93 204 C-92.34 205.65 -91.68 207.3 -91 209 C-90.34 209 -89.68 209 -89 209 C-88.773125 209.53625 -88.54625 210.0725 -88.3125 210.625 C-85.25639115 216.15510172 -80.98830084 220.23106159 -76 224 C-75.34 224 -74.68 224 -74 224 C-74 224.66 -74 225.32 -74 226 C-59.21180414 238.2958033 -35.12143603 246.48676392 -16 245 C-20.56633302 238.58922658 -25.64047256 232.75793479 -31 227 C-31.55300781 226.39285156 -32.10601562 225.78570312 -32.67578125 225.16015625 C-48.38287202 208.59560643 -72.19179208 196.05680916 -95.23046875 194.88671875 C-96.82073235 194.87719621 -98.41127622 194.92939005 -100 195 Z M82.5 196.5625 C81.73896973 196.73233398 80.97793945 196.90216797 80.19384766 197.07714844 C71.74648551 199.09645204 63.8977015 202.44103578 56 206 C56 206.66 56 207.32 56 208 C55.18789063 208.14115234 55.18789063 208.14115234 54.359375 208.28515625 C51.30228912 209.21139253 48.94230995 210.7245356 46.25 212.4375 C45.26515625 213.05496094 44.2803125 213.67242187 43.265625 214.30859375 C42.51796875 214.86675781 41.7703125 215.42492187 41 216 C41 216.66 41 217.32 41 218 C40.4112207 218.26425781 39.82244141 218.52851563 39.21582031 218.80078125 C36.91927416 220.04368944 35.39166834 221.35006481 33.546875 223.1875 C32.928125 223.80367187 32.309375 224.41984375 31.671875 225.0546875 C31.03765625 225.69664062 30.4034375 226.33859375 29.75 227 C28.77546875 227.96292969 28.77546875 227.96292969 27.78125 228.9453125 C26.86085938 229.86957031 26.86085938 229.86957031 25.921875 230.8125 C25.36081055 231.37582031 24.79974609 231.93914062 24.22167969 232.51953125 C22.78784208 233.93719109 22.78784208 233.93719109 23 236 C22.34 236 21.68 236 21 236 C19.41359001 237.75114651 19.41359001 237.75114651 17.875 239.9375 C17.33617187 240.66839844 16.79734375 241.39929688 16.2421875 242.15234375 C14.90701082 243.76724719 14.90701082 243.76724719 15 245 C37.07619636 246.4041397 58.94554088 238.35017545 76.56640625 225.33203125 C77.03949219 224.89246094 77.51257813 224.45289063 78 224 C78 223.34 78 222.68 78 222 C78.598125 221.731875 79.19625 221.46375 79.8125 221.1875 C81.99847854 220.00082594 83.41332594 218.90400887 85 217 C85 216.34 85 215.68 85 215 C85.66 215 86.32 215 87 215 C88.28804092 213.55123509 88.28804092 213.55123509 89.53125 211.640625 C90.01207031 210.93679688 90.49289062 210.23296875 90.98828125 209.5078125 C91.73658203 208.39019531 91.73658203 208.39019531 92.5 207.25 C92.99886719 206.52039063 93.49773437 205.79078125 94.01171875 205.0390625 C96.23182781 201.76544325 98.28808732 198.57277368 100 195 C93.90576727 194.85004349 88.43737472 195.20744757 82.5 196.5625 Z M112 195 C111.525625 196.03125 111.05125 197.0625 110.5625 198.125 C104.54362789 210.03647417 96.58329593 222.69596585 85.67578125 230.70703125 C84.84626953 231.34705078 84.84626953 231.34705078 84 232 C84 232.66 84 233.32 84 234 C82.35 234.66 80.7 235.32 79 236 C79 236.66 79 237.32 79 238 C78.154375 238.2475 77.30875 238.495 76.4375 238.75 C73.32443931 239.88202207 70.70705585 241.31045001 67.85375977 242.96582031 C52.97434129 251.26678392 35.64878531 253.72835245 19 256 C21.93938776 261.87877551 33.99639501 264.87656585 40 267 C58.865035 273.19008961 77.74972612 275.49642614 97 270 C97.83660156 269.79503906 98.67320312 269.59007812 99.53515625 269.37890625 C107.19959577 267.37244322 114.01506431 263.65081651 121 260 C122.33160512 259.32988804 123.66404464 258.66139662 125 258 C125 257.34 125 256.68 125 256 C125.99 256 126.98 256 128 256 C128 255.34 128 254.68 128 254 C129.1446875 253.566875 129.1446875 253.566875 130.3125 253.125 C133.15029308 252.03730987 133.15029308 252.03730987 136 250 C136 249.34 136 248.68 136 248 C136.5775 247.731875 137.155 247.46375 137.75 247.1875 C140.05550043 245.97070811 142.02056192 244.69666121 144 243 C144 242.34 144 241.68 144 241 C144.61875 240.7525 145.2375 240.505 145.875 240.25 C148.35068687 238.79371361 148.95125002 237.62187494 150 235 C150.66 235 151.32 235 152 235 C153.58191818 233.51573767 153.58191818 233.51573767 155.125 231.625 C155.66382813 230.99851562 156.20265625 230.37203125 156.7578125 229.7265625 C158.19467147 228.08391572 158.19467147 228.08391572 158 226 C158.66 226 159.32 226 160 226 C160.99 223.525 160.99 223.525 162 221 C162.66 221 163.32 221 164 221 C165.28006797 219.21601386 166.47660351 217.37146094 167.625 215.5 C168.75 213.66666667 169.875 211.83333333 171 210 C162.89205243 206.40071148 154.83119995 203.60656177 146.25 201.375 C145.12053955 201.07650146 143.9910791 200.77800293 142.82739258 200.47045898 C127.61919053 196.279186 127.61919053 196.279186 112 195 Z " fill="#DEDFCB" transform="translate(250,87)"/>
<path d="M0 0 C3.69567963 0.61594661 4.80775706 1.49581523 7 4.5 C8.22798466 7.69276013 8.17356282 9.02270224 7 12.25 C5 14.5 5 14.5 1.5625 15.4375 C-3.39705882 15.5245098 -3.39705882 15.5245098 -6 13.5 C-7.70451315 11.1461485 -8.02057971 9.91159419 -7.875 7 C-6.37046865 2.701339 -4.54017167 0.75669528 0 0 Z " fill="#DDDCC8" transform="translate(250,364.5)"/>
<path d="M0 0 C2.33043558 3.49565336 2.58763244 4.8865729 2 9 C-0.0625 11.4375 -0.0625 11.4375 -3 13 C-9.21052632 12.78947368 -9.21052632 12.78947368 -12 10 C-12.33398542 6.99413122 -12.56692056 4.89365701 -12 2 C-8.27564885 -1.72435115 -4.88581089 -1.29059156 0 0 Z " fill="#D7D9C4" transform="translate(422,350)"/>
<path d="M0 0 C2 2 2 2 2.4375 5.9375 C2.34911974 9.17810953 2.30450186 9.70445408 -0.125 12.0625 C-3.62813188 13.20482561 -5.50213159 13.14060926 -9 12 C-10.9375 10.3125 -10.9375 10.3125 -12 8 C-11.92974155 4.55733615 -11.60090824 2.71646751 -9.375 0.0625 C-5.95249533 -1.46862051 -3.58323398 -0.8626304 0 0 Z " fill="#DADBC7" transform="translate(88,350)"/>
<path d="M0 0 C0.33 0 0.66 0 1 0 C1.33 4.29 1.66 8.58 2 13 C2.33 13 2.66 13 3 13 C3.28545428 21.13544686 2.18396883 28.97649696 1 37 C0.67 37 0.34 37 0 37 C0 24.79 0 12.58 0 0 Z " fill="#E8E9D9" transform="translate(113,157)"/>
<path d="M0 0 C4.71403788 0.47939368 8.66579301 0.96834048 13 3 C13 3.66 13 4.32 13 5 C10.36 4.67 7.72 4.34 5 4 C5 4.66 5 5.32 5 6 C3.68 6 2.36 6 1 6 C0.67 4.02 0.34 2.04 0 0 Z " fill="#D6D6C3" transform="translate(416,284)"/>
<path d="M0 0 C2.03875926 3.0581389 2.25490139 3.71060009 2.265625 7.16015625 C2.26949219 8.3502832 2.26949219 8.3502832 2.2734375 9.56445312 C2.26570312 10.38880859 2.25796875 11.21316406 2.25 12.0625 C2.25773438 12.89072266 2.26546875 13.71894531 2.2734375 14.57226562 C2.27085937 15.36439453 2.26828125 16.15652344 2.265625 16.97265625 C2.26336914 17.69718994 2.26111328 18.42172363 2.25878906 19.16821289 C2 21 2 21 0 23 C-1.84876733 21.15123267 -1.13244636 18.56990811 -1.13671875 16.11328125 C-1.13285156 15.33339844 -1.12898437 14.55351562 -1.125 13.75 C-1.12886719 12.98558594 -1.13273438 12.22117188 -1.13671875 11.43359375 C-1.12990736 7.48980151 -0.9702625 3.85024801 0 0 Z " fill="#CCCDBA" transform="translate(189,211)"/>
<path d="M0 0 C0.33 0 0.66 0 1 0 C1.22656265 3.89499707 1.42804389 7.7909025 1.625 11.6875 C1.68945312 12.79029297 1.75390625 13.89308594 1.8203125 15.02929688 C1.871875 16.09599609 1.9234375 17.16269531 1.9765625 18.26171875 C2.02893066 19.24100342 2.08129883 20.22028809 2.13525391 21.22924805 C1.98934824 24.21820723 1.26054534 26.30467011 0 29 C-0.33 29 -0.66 29 -1 29 C-0.67 19.43 -0.34 9.86 0 0 Z " fill="#CBCCB9" transform="translate(376,168)"/>
<path d="M0 0 C1.85776765 3.13498292 2.20140476 5.37471432 2 9 C2.99 8.67 3.98 8.34 5 8 C5 8.99 5 9.98 5 11 C5.94978897 13.15028304 5.94978897 13.15028304 7 15 C5.171875 14.76953125 5.171875 14.76953125 3 14 C1.515625 12.07421875 1.515625 12.07421875 0.25 9.6875 C-0.17796875 8.90761719 -0.6059375 8.12773437 -1.046875 7.32421875 C-2 5 -2 5 -2 1 C-1.34 0.67 -0.68 0.34 0 0 Z " fill="#D5D6C4" transform="translate(277,136)"/>
<path d="M0 0 C1.4540625 0.0309375 1.4540625 0.0309375 2.9375 0.0625 C4.19291557 3.82874671 3.30811958 5.43438934 1.9375 9.0625 C0.2875 9.3925 -1.3625 9.7225 -3.0625 10.0625 C-1.1875 4.1875 -1.1875 4.1875 -0.0625 3.0625 C-1.3825 2.4025 -2.7025 1.7425 -4.0625 1.0625 C-3.0625 0.0625 -3.0625 0.0625 0 0 Z " fill="#D7D6C4" transform="translate(349.0625,279.9375)"/>
<path d="M0 0 C0 2.64 0 5.28 0 8 C-0.433125 7.360625 -0.86625 6.72125 -1.3125 6.0625 C-2.91239177 3.73253997 -2.91239177 3.73253997 -6 3 C-8.14255793 3.38932856 -8.14255793 3.38932856 -10 4 C-10.33 3.01 -10.66 2.02 -11 1 C-7.32589215 -0.17571451 -3.83070817 -0.07366746 0 0 Z " fill="#D4D5C2" transform="translate(386,152)"/>
<path d="M0 0 C0.144375 0.598125 0.28875 1.19625 0.4375 1.8125 C0.8872439 3.56150404 1.42892341 5.28677023 2 7 C1.07421875 8.82421875 1.07421875 8.82421875 -0.3125 10.6875 C-0.76238281 11.31011719 -1.21226562 11.93273437 -1.67578125 12.57421875 C-2.11277344 13.04472656 -2.54976563 13.51523437 -3 14 C-3.66 14 -4.32 14 -5 14 C-3.45730076 9.27934033 -1.92205381 4.58335908 0 0 Z " fill="#E5E3D1" transform="translate(291,266)"/>
<path d="M0 0 C1.76462683 3.08809695 2 4.23312136 2 8 C2.66 8 3.32 8 4 8 C3.67 9.32 3.34 10.64 3 12 C3.66 12 4.32 12 5 12 C5 12.99 5 13.98 5 15 C4.01 15 3.02 15 2 15 C-0.10428384 9.87080814 -0.21755666 5.4389165 0 0 Z " fill="#D7D8C7" transform="translate(192,251)"/>
<path d="M0 0 C-3.75 3 -3.75 3 -6 3 C-6.33 3.66 -6.66 4.32 -7 5 C-7.66666667 6.33333333 -8.33333333 7.66666667 -9 9 C-9.66 9 -10.32 9 -11 9 C-10.66009204 5.94082833 -10.14301602 4.19598492 -8.3125 1.6875 C-5.37575119 -0.45553291 -3.55482252 -0.32316568 0 0 Z " fill="#E7E6DB" transform="translate(253,365)"/>
<path d="M0 0 C3.3 0.66 6.6 1.32 10 2 C10 2.33 10 2.66 10 3 C3.565 3.495 3.565 3.495 -3 4 C-2.67 3.01 -2.34 2.02 -2 1 C-1.34 1 -0.68 1 0 1 C0 0.67 0 0.34 0 0 Z " fill="#E8E6D8" transform="translate(278,338)"/>
<path d="M0 0 C0.99 0.33 1.98 0.66 3 1 C2.625 3.4375 2.625 3.4375 2 6 C1.01 6.495 1.01 6.495 0 7 C-0.99 8.485 -0.99 8.485 -2 10 C-2.66 9.67 -3.32 9.34 -4 9 C-2.80100302 5.9168649 -1.52299523 2.93720508 0 0 Z " fill="#E3E4D6" transform="translate(259,231)"/>
<path d="M0 0 C0.33 0.66 0.66 1.32 1 2 C1.66 2.33 2.32 2.66 3 3 C1.515 5.475 1.515 5.475 0 8 C-0.66 7.67 -1.32 7.34 -2 7 C-2.66 7 -3.32 7 -4 7 C-2.79618552 4.50638429 -1.54571278 2.31856917 0 0 Z " fill="#E8E7D8" transform="translate(271,213)"/>
<path d="M0 0 C2.125 0.375 2.125 0.375 4 1 C2.60755361 3.78489278 0.44008012 5.12301529 -2 7 C-2.66 6.67 -3.32 6.34 -4 6 C-2.84826645 3.53199953 -1.95216435 1.95216435 0 0 Z " fill="#E1E2D3" transform="translate(250,87)"/>
<path d="M0 0 C0.33 0 0.66 0 1 0 C1.33 3.63 1.66 7.26 2 11 C1.01 10.34 0.02 9.68 -1 9 C-1.47114738 6.2572492 -1.17805784 3.80441103 -1 1 C-0.67 0.67 -0.34 0.34 0 0 Z " fill="#DDDED0" transform="translate(411,351)"/>
<path d="M0 0 C0.99 0 1.98 0 3 0 C1.50902342 3.7952131 -0.75700849 5.61042731 -4 8 C-3.40353695 4.65980694 -2.31705841 2.49529367 0 0 Z " fill="#D8D7C5" transform="translate(400,322)"/>
<path d="M0 0 C0 0.66 0 1.32 0 2 C-1.32 2.33 -2.64 2.66 -4 3 C-4 3.66 -4 4.32 -4 5 C-4.99 5.33 -5.98 5.66 -7 6 C-7.99 5.34 -8.98 4.68 -10 4 C-8.71086513 3.32845067 -7.41859796 2.66291141 -6.125 2 C-5.40570313 1.62875 -4.68640625 1.2575 -3.9453125 0.875 C-2 0 -2 0 0 0 Z " fill="#E5E2D7" transform="translate(319,318)"/>
<path d="M0 0 C0.99 0.33 1.98 0.66 3 1 C1.71937515 2.7074998 0.38232443 4.37373596 -1 6 C-1.66 6 -2.32 6 -3 6 C-3.33 6.99 -3.66 7.98 -4 9 C-4.33 8.01 -4.66 7.02 -5 6 C-4.01 5.67 -3.02 5.34 -2 5 C-1.33820153 3.01954441 -1.33820153 3.01954441 -1 1 C-0.67 0.67 -0.34 0.34 0 0 Z " fill="#E8E6DB" transform="translate(283,213)"/>
<path d="M0 0 C0.33 1.32 0.66 2.64 1 4 C-0.4375 6.25 -0.4375 6.25 -2 8 C-2.99 7.67 -3.98 7.34 -5 7 C-3.35 4.69 -1.7 2.38 0 0 Z " fill="#E2E3D6" transform="translate(235,105)"/>
<path d="M0 0 C0.66 0.33 1.32 0.66 2 1 C1.75 2.875 1.75 2.875 1 5 C-1.0625 6.25 -1.0625 6.25 -3 7 C-1.125 2.25 -1.125 2.25 0 0 Z " fill="#E7E5DA" transform="translate(281,287)"/>
<path d="M0 0 C0.66 0.33 1.32 0.66 2 1 C1.34 3.31 0.68 5.62 0 8 C-1.32 7.01 -2.64 6.02 -4 5 C-3.34 5 -2.68 5 -2 5 C-2 4.01 -2 3.02 -2 2 C-1.34 2 -0.68 2 0 2 C0 1.34 0 0.68 0 0 Z " fill="#D6D8C2" transform="translate(187,182)"/>
</svg>
